<svg width="40" height="9" viewBox="0 0 40 9" fill="none" xmlns="http://www.w3.org/2000/svg">
<path d="M2.19635 8.99794C1.93235 8.99794 1.68435 8.95394 1.45235 8.86594C1.22835 8.76994 1.03635 8.64194 0.876352 8.48194C0.716352 8.32194 0.588352 8.12994 0.492352 7.90594C0.404352 7.67394 0.360352 7.42594 0.360352 7.16194V6.40594C0.360352 6.10194 0.436352 5.80994 0.588352 5.52994C0.748352 5.24994 0.980352 5.02994 1.28435 4.86994L5.25635 2.88994V4.25794L1.89635 5.93794C1.81635 6.01794 1.74435 6.09794 1.68035 6.17794C1.61635 6.24994 1.58435 6.32594 1.58435 6.40594V7.16194C1.58435 7.32194 1.64835 7.46594 1.77635 7.59394C1.90435 7.71394 2.04435 7.77394 2.19635 7.77394H6.16835V2.43394C6.16835 2.27394 6.10435 2.13394 5.97635 2.01394C5.84835 1.88594 5.70835 1.82194 5.55635 1.82194H0.972352V0.597937H5.55635C5.82035 0.597937 6.06435 0.645937 6.28835 0.741938C6.52035 0.829937 6.71635 0.953938 6.87635 1.11394C7.03635 1.27394 7.16035 1.46994 7.24835 1.70194C7.34435 1.92594 7.39235 2.16994 7.39235 2.43394V7.77394H6.16835V8.99794H2.19635Z" fill="white"/>
<path d="M8.47395 8.98594V1.80994H9.69795V0.585938H13.8259C14.0579 0.585938 14.2739 0.629937 14.4739 0.717937C14.6739 0.805938 14.8499 0.929938 15.0019 1.08994C15.1619 1.24194 15.2859 1.41794 15.3739 1.61794C15.4619 1.81794 15.5059 2.03394 15.5059 2.26594V3.64594C15.5059 3.94994 15.4299 4.24194 15.2779 4.52194C15.1259 4.80194 14.8979 5.01794 14.5939 5.16994L13.6699 5.62594L15.8059 8.98594H14.2819L12.6019 6.23794L10.6219 7.16194V5.78194L13.9819 4.10194C14.1339 4.02194 14.2219 3.94594 14.2459 3.87394C14.2699 3.80194 14.2819 3.72594 14.2819 3.64594V2.26594C14.2819 2.22594 14.2659 2.18194 14.2339 2.13394C14.2019 2.07794 14.1619 2.02594 14.1139 1.97794C14.0659 1.92994 14.0139 1.88994 13.9579 1.85794C13.9099 1.82594 13.8659 1.80994 13.8259 1.80994H9.69795V8.98594H8.47395Z" fill="white"/>
<path d="M18.087 8.99794C17.823 8.99794 17.575 8.95394 17.343 8.86594C17.119 8.76994 16.927 8.64194 16.767 8.48194C16.607 8.32194 16.479 8.12994 16.383 7.90594C16.295 7.67394 16.251 7.42594 16.251 7.16194V6.40594C16.251 6.10194 16.327 5.80994 16.479 5.52994C16.639 5.24994 16.871 5.02994 17.175 4.86994L21.147 2.88994V4.25794L17.787 5.93794C17.707 6.01794 17.635 6.09794 17.571 6.17794C17.507 6.24994 17.475 6.32594 17.475 6.40594V7.16194C17.475 7.32194 17.539 7.46594 17.667 7.59394C17.795 7.71394 17.935 7.77394 18.087 7.77394H22.059V2.43394C22.059 2.27394 21.995 2.13394 21.867 2.01394C21.739 1.88594 21.599 1.82194 21.447 1.82194H16.863V0.597937H21.447C21.711 0.597937 21.955 0.645937 22.179 0.741938C22.411 0.829937 22.607 0.953938 22.767 1.11394C22.927 1.27394 23.051 1.46994 23.139 1.70194C23.235 1.92594 23.283 2.16994 23.283 2.43394V7.77394H22.059V8.99794H18.087Z" fill="white"/>
<path d="M24.3646 7.16194V2.43394C24.3646 2.16994 24.4086 1.92594 24.4966 1.70194C24.5846 1.46994 24.7046 1.27394 24.8566 1.11394C25.0166 0.953938 25.1966 0.829937 25.3966 0.741938C25.6046 0.645937 25.8206 0.597937 26.0446 0.597937H30.6286V1.82194H26.0446C25.8926 1.82194 25.7766 1.88594 25.6966 2.01394C25.6246 2.13394 25.5886 2.27394 25.5886 2.43394V7.16194C25.5886 7.32194 25.6246 7.46594 25.6966 7.59394C25.7766 7.71394 25.8926 7.77394 26.0446 7.77394H30.1726V4.86994H27.1126L27.8806 3.64594H31.3966V7.77394H30.1726V8.99794H26.0446C25.8206 8.99794 25.6046 8.95394 25.3966 8.86594C25.1966 8.76994 25.0166 8.64194 24.8566 8.48194C24.7046 8.32194 24.5846 8.12994 24.4966 7.90594C24.4086 7.67394 24.3646 7.42594 24.3646 7.16194Z" fill="white"/>
<path d="M34.0024 8.99794C33.7704 8.99794 33.5504 8.95394 33.3424 8.86594C33.1344 8.76994 32.9504 8.64594 32.7904 8.49394C32.6384 8.33394 32.5144 8.14994 32.4184 7.94194C32.3304 7.73394 32.2864 7.51394 32.2864 7.28194V1.84594H33.5344V0.597937H37.5784C37.8104 0.597937 38.0384 0.645937 38.2624 0.741938C38.4864 0.829937 38.6864 0.953938 38.8624 1.11394C39.0384 1.26594 39.1784 1.44594 39.2824 1.65394C39.3864 1.86194 39.4384 2.08194 39.4384 2.31394V7.28194C39.4384 7.51394 39.3864 7.73394 39.2824 7.94194C39.1784 8.14994 39.0384 8.33394 38.8624 8.49394C38.6864 8.64594 38.4864 8.76994 38.2624 8.86594C38.0384 8.95394 37.8104 8.99794 37.5784 8.99794H34.0024ZM33.5344 7.28194C33.5344 7.59394 33.6904 7.74994 34.0024 7.74994H37.5784C37.7384 7.74994 37.8824 7.71394 38.0104 7.64194C38.1384 7.56194 38.2024 7.44194 38.2024 7.28194V2.31394C38.2024 2.15394 38.1384 2.03794 38.0104 1.96594C37.8824 1.88594 37.7384 1.84594 37.5784 1.84594H33.5344V7.28194Z" fill="white"/>
</svg>
