<svg width="163" height="44" viewBox="0 0 163 44" fill="none" xmlns="http://www.w3.org/2000/svg">
<path d="M48.6211 27.1733V15.6044H51.6824V19.9116H55.1353V15.6044H58.1966V27.1733H55.1353V22.5814H51.6824V27.1733H48.6211ZM63.2092 27.3868C62.2363 27.3868 61.5302 27.0605 61.0912 26.408C60.6522 25.7435 60.4328 24.8595 60.4328 23.756V18.2742H63.494V23.3645C63.494 23.9341 63.5653 24.3136 63.7076 24.5035C63.8618 24.6933 64.0873 24.7883 64.384 24.7883C64.6687 24.7883 64.9061 24.729 65.0959 24.6103C65.2858 24.4917 65.4756 24.2899 65.6655 24.0051V18.2742H68.7268V27.1733H66.2349L66.0214 25.9987H65.9501C65.5943 26.4258 65.1967 26.764 64.7577 27.0132C64.3306 27.2623 63.8144 27.3868 63.2092 27.3868ZM74.0328 30.8398C73.3565 30.8398 72.7335 30.7627 72.1639 30.6084C71.5945 30.4659 71.1377 30.2346 70.7936 29.9142C70.4612 29.5939 70.2952 29.1667 70.2952 28.6327C70.2952 27.9327 70.7104 27.3631 71.5411 26.9241V26.8529C71.3136 26.6847 71.1152 26.4802 70.9537 26.2478C70.7995 25.9987 70.7223 25.69 70.7223 25.3222C70.7223 25.0138 70.8114 24.7112 70.9893 24.4146C71.1792 24.1179 71.4225 23.8628 71.719 23.6493V23.578C71.3986 23.3645 71.114 23.0619 70.8648 22.6702C70.6274 22.2668 70.5088 21.81 70.5088 21.2999C70.5088 20.5641 70.6867 19.9591 71.0427 19.4845C71.4105 18.9979 71.8852 18.642 72.4665 18.4165C73.048 18.1793 73.665 18.0605 74.3176 18.0605C74.8396 18.0605 75.3143 18.1317 75.7414 18.2742H79.052V20.4811H77.7705C77.806 20.588 77.8357 20.7244 77.8594 20.8904C77.895 21.0566 77.9128 21.2286 77.9128 21.4066C77.9128 22.1067 77.7527 22.6763 77.4323 23.1153C77.1119 23.5424 76.6789 23.8569 76.133 24.0586C75.5871 24.2604 74.9821 24.3612 74.3176 24.3612C74.021 24.3612 73.6887 24.3197 73.3209 24.2365C73.1784 24.3671 73.1074 24.5391 73.1074 24.7527C73.1074 24.9425 73.2023 25.0789 73.3921 25.1621C73.5938 25.2451 73.9142 25.2866 74.3532 25.2866H75.6881C76.8034 25.2866 77.6637 25.4706 78.2689 25.8384C78.8858 26.1944 79.1943 26.7816 79.1943 27.6004C79.1943 28.2412 78.9807 28.8047 78.5536 29.2913C78.1383 29.7777 77.545 30.1574 76.7737 30.4303C76.0025 30.7033 75.0888 30.8398 74.0328 30.8398ZM74.3176 22.5457C74.6024 22.5457 74.8337 22.4449 75.0117 22.2431C75.1898 22.0415 75.2786 21.727 75.2786 21.2999C75.2786 20.8845 75.1898 20.5819 75.0117 20.3921C74.8337 20.1905 74.6024 20.0897 74.3176 20.0897C74.0328 20.0897 73.8014 20.1905 73.6235 20.3921C73.4454 20.5819 73.3565 20.8845 73.3565 21.2999C73.3565 21.727 73.4454 22.0415 73.6235 22.2431C73.8014 22.4449 74.0328 22.5457 74.3176 22.5457ZM74.5311 28.9531C75.0295 28.9531 75.4448 28.876 75.777 28.7217C76.1093 28.5793 76.2753 28.3835 76.2753 28.1343C76.2753 27.8971 76.1686 27.7487 75.9551 27.6894C75.7533 27.6301 75.4626 27.6004 75.0829 27.6004H74.3888C74.0328 27.6004 73.7599 27.5886 73.5701 27.5648C73.3921 27.553 73.2379 27.5293 73.1074 27.4937C72.8938 27.7072 72.7869 27.9208 72.7869 28.1343C72.7869 28.4191 72.9471 28.6268 73.2675 28.7574C73.5998 28.8879 74.021 28.9531 74.5311 28.9531ZM83.7489 30.8398C83.0725 30.8398 82.4496 30.7627 81.8801 30.6084C81.3105 30.4659 80.8536 30.2346 80.5095 29.9142C80.1774 29.5939 80.0112 29.1667 80.0112 28.6327C80.0112 27.9327 80.4265 27.3631 81.2571 26.9241V26.8529C81.0296 26.6847 80.8311 26.4802 80.6698 26.2478C80.5154 25.9987 80.4383 25.69 80.4383 25.3222C80.4383 25.0138 80.5274 24.7112 80.7053 24.4146C80.8951 24.1179 81.1384 23.8628 81.4352 23.6493V23.578C81.1147 23.3645 80.83 23.0619 80.5808 22.6702C80.3434 22.2668 80.2248 21.81 80.2248 21.2999C80.2248 20.5641 80.4029 19.9591 80.7587 19.4845C81.1265 18.9979 81.6012 18.642 82.1827 18.4165C82.764 18.1793 83.381 18.0605 84.0336 18.0605C84.5558 18.0605 85.0304 18.1317 85.4575 18.2742H88.768V20.4811H87.4865C87.5221 20.588 87.5517 20.7244 87.5755 20.8904C87.611 21.0566 87.6288 21.2286 87.6288 21.4066C87.6288 22.1067 87.4687 22.6763 87.1483 23.1153C86.828 23.5424 86.3949 23.8569 85.849 24.0586C85.3033 24.2604 84.6981 24.3612 84.0336 24.3612C83.737 24.3612 83.4048 24.3197 83.0369 24.2365C82.8946 24.3671 82.8233 24.5391 82.8233 24.7527C82.8233 24.9425 82.9183 25.0789 83.1081 25.1621C83.3099 25.2451 83.6301 25.2866 84.0692 25.2866H85.4041C86.5194 25.2866 87.3796 25.4706 87.9848 25.8384C88.6018 26.1944 88.9103 26.7816 88.9103 27.6004C88.9103 28.2412 88.6967 28.8047 88.2696 29.2913C87.8543 29.7777 87.261 30.1574 86.4898 30.4303C85.7186 30.7033 84.8049 30.8398 83.7489 30.8398ZM84.0336 22.5457C84.3183 22.5457 84.5497 22.4449 84.7278 22.2431C84.9057 22.0415 84.9948 21.727 84.9948 21.2999C84.9948 20.8845 84.9057 20.5819 84.7278 20.3921C84.5497 20.1905 84.3183 20.0897 84.0336 20.0897C83.7489 20.0897 83.5174 20.1905 83.3395 20.3921C83.1615 20.5819 83.0725 20.8845 83.0725 21.2999C83.0725 21.727 83.1615 22.0415 83.3395 22.2431C83.5174 22.4449 83.7489 22.5457 84.0336 22.5457ZM84.2473 28.9531C84.7456 28.9531 85.1608 28.876 85.4931 28.7217C85.8253 28.5793 85.9915 28.3835 85.9915 28.1343C85.9915 27.8971 85.8846 27.7487 85.6711 27.6894C85.4694 27.6301 85.1786 27.6004 84.7989 27.6004H84.1048C83.7489 27.6004 83.4759 27.5886 83.286 27.5648C83.1081 27.553 82.9539 27.5293 82.8233 27.4937C82.6098 27.7072 82.5029 27.9208 82.5029 28.1343C82.5029 28.4191 82.6632 28.6268 82.9836 28.7574C83.3158 28.8879 83.737 28.9531 84.2473 28.9531ZM90.2257 27.1733V18.2742H93.287V27.1733H90.2257ZM91.7563 17.1707C91.258 17.1707 90.8544 17.0342 90.5459 16.7614C90.2374 16.4766 90.0832 16.1027 90.0832 15.64C90.0832 15.1773 90.2374 14.8093 90.5459 14.5365C90.8544 14.2517 91.258 14.1094 91.7563 14.1094C92.2547 14.1094 92.6581 14.2517 92.9666 14.5365C93.275 14.8093 93.4293 15.1773 93.4293 15.64C93.4293 16.1027 93.275 16.4766 92.9666 16.7614C92.6581 17.0342 92.2547 17.1707 91.7563 17.1707ZM95.3531 27.1733V18.2742H97.8448L98.0583 19.342H98.1296C98.4854 18.9979 98.889 18.7013 99.3398 18.4521C99.8025 18.1911 100.336 18.0605 100.942 18.0605C101.926 18.0605 102.632 18.3928 103.06 19.0573C103.499 19.7099 103.718 20.588 103.718 21.6914V27.1733H100.657V22.083C100.657 21.5134 100.586 21.1337 100.443 20.9439C100.301 20.754 100.076 20.6591 99.7669 20.6591C99.4823 20.6591 99.2449 20.7184 99.055 20.8372C98.8652 20.9558 98.6516 21.122 98.4144 21.3355V27.1733H95.3531ZM108.951 30.8398C108.275 30.8398 107.652 30.7627 107.083 30.6084C106.513 30.4659 106.056 30.2346 105.712 29.9142C105.38 29.5939 105.214 29.1667 105.214 28.6327C105.214 27.9327 105.629 27.3631 106.46 26.9241V26.8529C106.232 26.6847 106.034 26.4802 105.872 26.2478C105.718 25.9987 105.641 25.69 105.641 25.3222C105.641 25.0138 105.73 24.7112 105.908 24.4146C106.098 24.1179 106.341 23.8628 106.638 23.6493V23.578C106.317 23.3645 106.032 23.0619 105.783 22.6702C105.546 22.2668 105.427 21.81 105.427 21.2999C105.427 20.5641 105.605 19.9591 105.961 19.4845C106.329 18.9979 106.804 18.642 107.385 18.4165C107.967 18.1793 108.584 18.0605 109.236 18.0605C109.758 18.0605 110.233 18.1317 110.66 18.2742H113.97V20.4811H112.689C112.725 20.588 112.754 20.7244 112.778 20.8904C112.814 21.0566 112.831 21.2286 112.831 21.4066C112.831 22.1067 112.671 22.6763 112.351 23.1153C112.031 23.5424 111.597 23.8569 111.052 24.0586C110.506 24.2604 109.901 24.3612 109.236 24.3612C108.94 24.3612 108.607 24.3197 108.24 24.2365C108.097 24.3671 108.026 24.5391 108.026 24.7527C108.026 24.9425 108.121 25.0789 108.311 25.1621C108.512 25.2451 108.833 25.2866 109.272 25.2866H110.607C111.722 25.2866 112.582 25.4706 113.188 25.8384C113.804 26.1944 114.113 26.7816 114.113 27.6004C114.113 28.2412 113.899 28.8047 113.472 29.2913C113.057 29.7777 112.464 30.1574 111.692 30.4303C110.921 30.7033 110.007 30.8398 108.951 30.8398ZM109.236 22.5457C109.521 22.5457 109.752 22.4449 109.93 22.2431C110.108 22.0415 110.197 21.727 110.197 21.2999C110.197 20.8845 110.108 20.5819 109.93 20.3921C109.752 20.1905 109.521 20.0897 109.236 20.0897C108.951 20.0897 108.72 20.1905 108.542 20.3921C108.364 20.5819 108.275 20.8845 108.275 21.2999C108.275 21.727 108.364 22.0415 108.542 22.2431C108.72 22.4449 108.951 22.5457 109.236 22.5457ZM109.45 28.9531C109.948 28.9531 110.363 28.876 110.696 28.7217C111.028 28.5793 111.194 28.3835 111.194 28.1343C111.194 27.8971 111.087 27.7487 110.874 27.6894C110.672 27.6301 110.381 27.6004 110.002 27.6004H109.307C108.951 27.6004 108.679 27.5886 108.489 27.5648C108.311 27.553 108.156 27.5293 108.026 27.4937C107.812 27.7072 107.706 27.9208 107.706 28.1343C107.706 28.4191 107.866 28.6268 108.186 28.7574C108.518 28.8879 108.94 28.9531 109.45 28.9531ZM119.241 27.1733V15.6044H126.787V18.1674H122.302V20.3743H126.146V22.9372H122.302V27.1733H119.241ZM130.135 27.3868C129.577 27.3868 129.096 27.2623 128.693 27.0132C128.308 26.7591 127.995 26.4096 127.785 25.9987C127.572 25.5833 127.465 25.1324 127.465 24.646C127.465 23.7203 127.845 22.9967 128.604 22.4745C129.363 21.9405 130.598 21.5847 132.306 21.4066C132.235 20.7896 131.82 20.4811 131.06 20.4811C130.74 20.4811 130.402 20.5463 130.046 20.6769C129.69 20.7955 129.28 20.9795 128.818 21.2286L127.75 19.2353C128.379 18.8556 129.013 18.5649 129.654 18.3631C130.306 18.1616 130.983 18.0597 131.665 18.0605C132.828 18.0605 133.736 18.3928 134.389 19.0573C135.041 19.7099 135.367 20.7659 135.367 22.2253V27.1733H132.876L132.662 26.3189H132.591C132.235 26.6393 131.855 26.9004 131.452 27.102C131.06 27.2919 130.621 27.3868 130.135 27.3868ZM131.203 25.0374C131.452 25.0374 131.659 24.984 131.826 24.8773C131.992 24.7587 132.152 24.6103 132.306 24.4324V23.222C131.582 23.3289 131.078 23.489 130.793 23.7025C130.52 23.9163 130.384 24.1476 130.384 24.3968C130.384 24.8239 130.657 25.0374 131.203 25.0374ZM141.386 27.3868C140.543 27.3868 139.784 27.2029 139.107 26.8351C138.431 26.4673 137.891 25.9392 137.488 25.251C137.096 24.551 136.9 23.7086 136.9 22.7237C136.9 21.7389 137.12 20.9024 137.559 20.2142C138.01 19.514 138.597 18.9802 139.321 18.6123C140.045 18.2445 140.828 18.0605 141.67 18.0605C142.204 18.0605 142.685 18.1437 143.112 18.3097C143.551 18.4758 143.937 18.7013 144.269 18.9861L142.845 20.9439C142.655 20.7779 142.483 20.6651 142.329 20.6058C142.176 20.5465 142.013 20.5164 141.848 20.5168C141.279 20.5168 140.834 20.7184 140.513 21.122C140.193 21.5134 140.033 22.0474 140.033 22.7237C140.033 23.4001 140.199 23.9399 140.531 24.3434C140.863 24.7348 141.267 24.9308 141.741 24.9308C141.991 24.9308 142.234 24.8773 142.471 24.7705C142.714 24.6554 142.947 24.5183 143.165 24.3612L144.34 26.3545C143.901 26.7462 143.415 27.019 142.881 27.1733C142.347 27.3156 141.848 27.3868 141.386 27.3868ZM149.349 27.3868C148.482 27.3868 147.699 27.2029 146.999 26.8351C146.311 26.4673 145.765 25.9392 145.362 25.251C144.958 24.551 144.757 23.7086 144.757 22.7237C144.757 21.7626 144.958 20.938 145.362 20.2498C145.777 19.5496 146.311 19.0098 146.964 18.6301C147.616 18.2504 148.304 18.0605 149.028 18.0605C149.906 18.0605 150.63 18.2564 151.2 18.6479C151.781 19.0276 152.208 19.5438 152.481 20.1963C152.766 20.8489 152.908 21.5727 152.908 22.3678C152.908 22.6287 152.89 22.884 152.855 23.1331C152.831 23.3704 152.807 23.5424 152.784 23.6493H147.711C147.853 24.1832 148.109 24.5569 148.476 24.7705C148.844 24.9723 149.277 25.0731 149.776 25.0731C150.345 25.0731 150.95 24.8951 151.591 24.5391L152.588 26.3545C152.113 26.6867 151.579 26.9419 150.986 27.1199C150.393 27.2978 149.847 27.3868 149.349 27.3868ZM147.676 21.6557H150.31C150.31 21.3116 150.221 21.0151 150.043 20.7659C149.877 20.5048 149.562 20.3743 149.099 20.3743C148.767 20.3743 148.471 20.4753 148.209 20.6769C147.948 20.8787 147.77 21.205 147.676 21.6557Z" fill="#E8E8E9"/>
<path d="M42.0405 28.8658C41.9503 28.5252 41.8041 28.2021 41.6081 27.9094C41.6501 27.7552 41.682 27.5986 41.7035 27.4405C41.8426 26.4364 41.4946 25.5172 40.8385 24.8058C40.4832 24.4173 40.1023 24.1609 39.6989 24.0035C39.9637 22.8705 40.0977 21.711 40.0984 20.5475C40.0984 20.0162 40.0683 19.4957 40.0179 18.9829C39.9916 18.7269 39.9598 18.4713 39.9227 18.2166C39.8071 17.4651 39.6357 16.7232 39.4099 15.9971C39.2619 15.52 39.0906 15.0505 38.8969 14.5901C38.6064 13.9084 38.2672 13.2484 37.8819 12.6152C37.6291 12.1941 37.3538 11.7869 37.0573 11.3953C36.912 11.1975 36.7606 11.0044 36.603 10.8163C36.1362 10.2489 35.6291 9.7162 35.0853 9.22228C34.9048 9.05624 34.7192 8.89594 34.5285 8.74158C34.3408 8.58502 34.1489 8.43347 33.9532 8.28709C33.5592 7.99387 33.1519 7.71875 32.7329 7.46263C30.4174 6.05632 27.7021 5.25 24.7999 5.25C16.3501 5.25 9.50154 12.0987 9.50154 20.5482C9.50132 21.7263 9.63782 22.9004 9.90831 24.047C9.54539 24.2046 9.19743 24.4501 8.875 24.8054C8.21906 25.5163 7.87092 26.4323 8.01021 27.4363C8.03121 27.5959 8.06314 27.7538 8.10548 27.9091C7.90952 28.2019 7.76339 28.5252 7.673 28.8658C7.47138 29.6321 7.53774 30.3231 7.79397 30.9285C7.51557 31.72 7.58513 32.5628 7.94788 33.2955C8.21166 33.8307 8.5892 34.2445 9.05444 34.6147C9.60773 35.0544 10.3003 35.4282 11.1358 35.7866C12.1325 36.2117 13.349 36.611 13.9023 36.7576C15.3314 37.1277 16.7018 37.3622 18.0908 37.3735C20.0693 37.392 21.7734 36.9266 22.9935 35.7358C23.5928 35.8093 24.196 35.8461 24.7999 35.8459C25.4379 35.8445 26.0751 35.8042 26.7082 35.7256C27.9254 36.9239 29.6359 37.3935 31.6219 37.3745C33.0106 37.3636 34.3809 37.129 35.8064 36.7584C36.3634 36.6119 37.5795 36.2125 38.5767 35.7876C39.4122 35.4284 40.1046 35.0547 40.6618 34.6155C41.1235 34.2455 41.5007 33.8315 41.7647 33.2964C42.1311 32.5637 42.1971 31.7209 41.9223 30.9293C42.1761 30.324 42.242 29.6314 42.0405 28.8658ZM40.6226 30.8773C40.9034 31.41 40.9214 32.0121 40.6735 32.5727C40.2979 33.4226 39.3647 34.0918 37.5523 34.8104C36.4254 35.2575 35.3932 35.5431 35.3842 35.5458C33.8935 35.9324 32.5453 36.1287 31.3783 36.1287C29.4458 36.1287 28.0079 35.5955 27.0959 34.5424C25.5536 34.805 23.9788 34.8139 22.4337 34.5688C21.5207 35.6044 20.0907 36.1287 18.1744 36.1287C17.0072 36.1287 15.6592 35.9324 14.1686 35.5458C14.1593 35.5431 13.1279 35.2575 12.0005 34.8104C10.1881 34.0918 9.25472 33.4229 8.8792 32.5727C8.63137 32.0121 8.64935 31.41 8.93011 30.8773C8.95615 30.8279 8.98387 30.7795 9.01361 30.7329C8.84533 30.4802 8.73247 30.1946 8.68242 29.8952C8.63238 29.5958 8.64631 29.289 8.72328 28.9953C8.83484 28.5716 9.06536 28.2191 9.37821 27.9658C9.22757 27.7182 9.12869 27.4426 9.08754 27.1557C8.99748 26.5316 9.20448 25.9085 9.67056 25.4006C10.0333 25.0052 10.5463 24.7876 11.1143 24.7876H11.1295C10.7012 23.4151 10.4841 21.9854 10.4855 20.5477C10.4855 12.706 16.8427 6.3485 24.6853 6.3485C32.528 6.3485 38.8852 12.7055 38.8852 20.5477C38.8862 21.9893 38.6676 23.4226 38.2368 24.7984C38.3053 24.7917 38.3725 24.7881 38.4384 24.7881C39.0063 24.7881 39.5194 25.0055 39.8822 25.4009C40.3479 25.9085 40.5554 26.5322 40.4652 27.156C40.424 27.443 40.3252 27.7187 40.1745 27.9664C40.4874 28.2194 40.7179 28.5719 40.8295 28.9958C40.9062 29.2895 40.9202 29.5961 40.8701 29.8957C40.8201 30.1951 40.7073 30.4806 40.5391 30.7334C40.5689 30.7795 40.5969 30.8279 40.6226 30.8773Z" fill="#E8E8E9"/>
<path d="M40.5405 30.7363C40.7087 30.4835 40.8214 30.198 40.8715 29.8986C40.9216 29.599 40.9076 29.2924 40.8308 28.9987C40.7193 28.575 40.4888 28.2225 40.1759 27.9692C40.3265 27.7216 40.4254 27.446 40.4666 27.1591C40.5566 26.535 40.3496 25.9119 39.8836 25.4039C39.5208 25.0086 39.0077 24.791 38.4398 24.791C38.3738 24.791 38.3067 24.7944 38.2382 24.8013C38.6685 23.4255 38.8867 21.9922 38.8854 20.5508C38.8854 12.7092 32.5281 6.35156 24.6862 6.35156C16.8443 6.35156 10.4863 12.7085 10.4863 20.5508C10.4849 21.9885 10.7021 23.4181 11.1303 24.7907H11.1152C10.5473 24.7907 10.0343 25.0083 9.67159 25.4036C9.20584 25.9112 8.99851 26.5347 9.08857 27.1587C9.12968 27.4457 9.22856 27.7213 9.37924 27.9689C9.06639 28.2221 8.83587 28.5746 8.72447 28.9985C8.64756 29.2922 8.63368 29.599 8.68378 29.8986C8.73388 30.198 8.84681 30.4836 9.01515 30.7363C8.98507 30.7829 8.95751 30.8313 8.93164 30.8807C8.65105 31.4134 8.6329 32.0155 8.88073 32.5761C9.25625 33.4258 10.1896 34.0953 12.002 34.8138C13.1289 35.2609 14.161 35.5465 14.1701 35.5492C15.6608 35.9358 17.0088 36.1322 18.1758 36.1322C20.0922 36.1322 21.5221 35.608 22.4352 34.5722C23.9803 34.8173 25.5552 34.8084 27.0974 34.5458C28.0092 35.5989 29.4473 36.1322 31.3798 36.1322C32.5469 36.1322 33.8951 35.9358 35.3857 35.5492C35.3948 35.5465 36.4264 35.2609 37.5538 34.8138C39.3662 34.0953 40.2996 33.4258 40.6751 32.5761C40.9229 32.0155 40.9049 31.4134 40.6242 30.8807C40.5985 30.8308 40.5702 30.7825 40.5405 30.7363ZM21.7818 32.9508C21.7032 33.0884 21.619 33.2227 21.5293 33.3532C21.2932 33.6988 20.9827 33.9628 20.6225 34.1592C19.9335 34.5347 19.0616 34.6661 18.1756 34.6661C16.7764 34.6661 15.3419 34.3386 14.5377 34.13C14.4982 34.1197 9.60909 32.7388 10.2281 31.5633C10.3322 31.3657 10.5038 31.2868 10.7195 31.2868C11.591 31.2868 13.178 32.5845 13.8601 32.5845C14.0124 32.5845 14.1199 32.5195 14.1637 32.3614C14.4544 31.3189 9.74602 30.8807 10.1425 29.3712C10.2126 29.104 10.4023 28.9957 10.6693 28.9957C11.8214 28.9955 14.4075 31.0218 14.9484 31.0218C14.9899 31.0218 15.0196 31.0097 15.0357 30.9842L15.0428 30.9726C15.2965 30.5534 15.151 30.2486 13.4117 29.1833L13.2447 29.0817C11.3309 27.9232 9.98746 27.2263 10.7516 26.3946C10.8395 26.2985 10.964 26.256 11.1154 26.256C11.295 26.256 11.5122 26.3161 11.7515 26.4168C12.7623 26.843 14.1632 28.0055 14.7484 28.5126C14.921 28.6628 15.0226 28.7546 15.0226 28.7546C15.0226 28.7546 15.7636 29.5251 16.2117 29.5251C16.3149 29.5251 16.4022 29.4846 16.4615 29.384C16.7794 28.8483 13.5106 26.3714 13.3263 25.3495C13.2015 24.6569 13.414 24.3063 13.8074 24.3063C13.9942 24.3063 14.2224 24.3858 14.4742 24.5455C15.2555 25.0415 16.764 27.6337 17.3162 28.642C17.5014 28.98 17.8174 29.1229 18.1022 29.1229C18.6673 29.1229 19.109 28.5612 18.154 27.8474C16.7186 26.7733 17.2223 25.0178 17.9073 24.9098C17.9366 24.9053 17.9661 24.9029 17.9955 24.9028C18.6185 24.9028 18.8934 25.9764 18.8934 25.9764C18.8934 25.9764 19.6987 27.999 21.0824 29.3814C22.338 30.6364 22.5132 31.6663 21.7818 32.9508ZM26.256 33.1877L26.1842 33.1963L26.0617 33.2104C25.9974 33.217 25.933 33.2233 25.8683 33.2294L25.8052 33.2351L25.7477 33.24L25.6659 33.2465C25.6358 33.2487 25.6057 33.2511 25.5757 33.2529L25.4856 33.259L25.4658 33.2601L25.3949 33.2643L25.3648 33.2658L25.2808 33.27L25.1832 33.2741L25.0945 33.2771L25.0353 33.2788H25.0054C24.9869 33.2788 24.9686 33.2798 24.9501 33.28H24.9207C24.9022 33.28 24.8839 33.28 24.8654 33.281L24.7903 33.2818H24.6852C24.6027 33.2818 24.5205 33.281 24.4383 33.2795L24.3718 33.2779C24.353 33.2779 24.334 33.2769 24.3152 33.2764L24.2448 33.2742L24.1571 33.2709L24.0783 33.2675L24.0578 33.2667L23.9827 33.2626C23.9618 33.2615 23.941 33.2605 23.9203 33.2591L23.8718 33.2563C23.8108 33.2524 23.7498 33.248 23.6888 33.2433L23.625 33.2383L23.5443 33.2314L23.4501 33.2227C23.3975 33.2178 23.3449 33.2124 23.2923 33.2065H23.2898C24.0576 31.4936 23.6693 29.8939 22.1177 28.3434C21.1002 27.3273 20.4231 25.8263 20.2828 25.4969C19.9985 24.5215 19.2459 23.4373 17.9964 23.4373C17.8907 23.4375 17.7853 23.4459 17.681 23.4623C17.1334 23.5484 16.6549 23.8636 16.3135 24.3377C15.9447 23.8789 15.586 23.5141 15.2617 23.3079C14.7728 22.9981 14.285 22.8408 13.8095 22.8408C13.2164 22.8408 12.686 23.0845 12.3164 23.5264L12.3071 23.5376L12.2863 23.4501L12.2854 23.4464C12.2151 23.1456 12.1561 22.8422 12.1084 22.5371C12.1084 22.5349 12.1084 22.5329 12.1073 22.5308L12.0969 22.4618C12.0913 22.4245 12.0858 22.387 12.0805 22.3497C12.0761 22.3186 12.0717 22.2876 12.0677 22.2566C12.0637 22.2257 12.0593 22.1946 12.0556 22.1636C12.0516 22.1323 12.0479 22.1012 12.0442 22.0701C12.0406 22.0406 12.0372 22.011 12.0339 21.9814L12.0329 21.9739C12.0178 21.8374 12.0048 21.7008 11.9939 21.5641L11.9881 21.4849C11.9864 21.4633 11.9849 21.4414 11.9835 21.4194C11.9835 21.4144 11.9828 21.4092 11.9825 21.4045L11.977 21.3167C11.975 21.285 11.9734 21.2532 11.9718 21.2215C11.9701 21.1899 11.9684 21.1581 11.9671 21.1262L11.9637 21.043L11.9627 21.0178L11.9602 20.9409L11.9583 20.8757C11.9583 20.8497 11.9571 20.8234 11.9566 20.7974L11.9553 20.7152C11.955 20.6879 11.9553 20.6606 11.9546 20.6332C11.9538 20.6057 11.9546 20.5783 11.9546 20.5508C11.9546 13.5189 17.6556 7.81784 24.6882 7.81784C31.7207 7.81784 37.4216 13.5185 37.4216 20.5508V20.7152C37.4216 20.7426 37.4209 20.7702 37.4202 20.7974C37.4202 20.8203 37.4194 20.8426 37.4187 20.8654C37.4187 20.8858 37.4179 20.9059 37.4171 20.9256C37.4171 20.9513 37.4155 20.9768 37.4147 21.0026V21.0047C37.4125 21.0605 37.4102 21.1163 37.4078 21.1721L37.4068 21.1906L37.4024 21.2739L37.3984 21.3399C37.389 21.4964 37.3767 21.6528 37.3618 21.8089V21.8111C37.3591 21.8403 37.3561 21.8697 37.3529 21.8989C37.3455 21.967 37.3379 22.035 37.3304 22.1031L37.3218 22.1715L37.3112 22.2518C37.3075 22.2812 37.3035 22.3104 37.2993 22.3396C37.2947 22.3724 37.2899 22.405 37.2852 22.4376L37.2734 22.5145L37.2596 22.6019C37.2549 22.631 37.2502 22.6599 37.2447 22.6889C37.239 22.7178 37.2346 22.7467 37.2295 22.7758C37.2195 22.8336 37.209 22.8912 37.1978 22.9489C37.1754 23.0636 37.1521 23.178 37.1274 23.2923C37.1212 23.3207 37.1148 23.3493 37.1082 23.3777C36.7499 23.0294 36.2754 22.8397 35.7518 22.8397C35.2768 22.8397 34.7886 22.9968 34.2998 23.3068C33.9754 23.5127 33.617 23.8777 33.2479 24.3365C32.9059 23.8622 32.4274 23.5472 31.8805 23.461C31.7762 23.4447 31.6707 23.4363 31.565 23.4361C30.3151 23.4361 29.5631 24.5203 29.2786 25.4957C29.1376 25.8252 28.4605 27.3259 27.4418 28.3438C25.8914 29.8892 25.5001 31.4818 26.256 33.1877ZM39.4017 29.7588L39.3966 29.7738C39.3931 29.7833 39.3896 29.7929 39.3857 29.8023C39.3797 29.8166 39.3733 29.8305 39.3666 29.8445C39.3503 29.8778 39.3318 29.91 39.3115 29.9409C39.2834 29.9828 39.2527 30.0228 39.2192 30.0604C39.2115 30.0691 39.2041 30.0777 39.1954 30.0863C39.1836 30.0992 39.171 30.1118 39.1586 30.1244C38.9322 30.3487 38.5875 30.5451 38.1977 30.7256C38.1535 30.7456 38.1088 30.7656 38.0634 30.7856L38.0184 30.8056C37.9883 30.8188 37.9584 30.8321 37.9268 30.845C37.8961 30.8581 37.8652 30.8711 37.8342 30.8839L37.7405 30.9227C37.5212 31.0129 37.2966 31.0987 37.0773 31.1838L36.9837 31.2201L36.891 31.2563C36.8295 31.2804 36.7687 31.3044 36.7087 31.3284L36.6195 31.3644L36.5319 31.4003L36.4888 31.4183C36.4602 31.4304 36.432 31.4422 36.4041 31.4543C35.7592 31.7308 35.2955 32.0123 35.3929 32.3616C35.3956 32.3715 35.3987 32.3809 35.402 32.39C35.4108 32.4158 35.4227 32.4404 35.4375 32.4632C35.4462 32.477 35.4563 32.4899 35.4675 32.5017C35.5821 32.6207 35.7906 32.6018 36.0536 32.5074C36.0749 32.4997 36.0968 32.4914 36.1188 32.4827C36.1339 32.477 36.1489 32.4709 36.164 32.4649L36.1867 32.4553C36.2468 32.4298 36.3105 32.4014 36.3757 32.3703C36.392 32.3627 36.4084 32.3554 36.4249 32.3466C36.7463 32.1895 37.1108 31.9776 37.4723 31.7849C37.5278 31.7549 37.5834 31.7261 37.6387 31.6976C37.7291 31.6507 37.8203 31.6055 37.9124 31.5623C38.2548 31.4013 38.5765 31.2871 38.8355 31.2871C38.9568 31.2871 39.0641 31.312 39.1534 31.3691L39.1683 31.379C39.2135 31.4109 39.2528 31.4501 39.2849 31.4951C39.2923 31.5057 39.3 31.5166 39.3066 31.5279C39.3136 31.5395 39.3204 31.5514 39.3267 31.5635C39.4546 31.8061 39.3476 32.0576 39.0972 32.3041C38.8568 32.5407 38.4828 32.7727 38.0575 32.9876C38.0261 33.0036 37.9944 33.0195 37.9624 33.035C36.6971 33.6563 35.0404 34.1242 35.0173 34.1301C34.5757 34.2445 33.9443 34.3949 33.2331 34.5073L33.1277 34.5236L33.1106 34.5261C32.9493 34.5503 32.7875 34.5717 32.6254 34.5902L32.6104 34.5917C32.3155 34.6253 32.0131 34.6496 31.7102 34.6599H31.7056C31.5967 34.6639 31.488 34.6658 31.3792 34.6658H31.2538C31.0878 34.6634 30.922 34.656 30.7565 34.6433C30.7526 34.6433 30.7486 34.6433 30.7446 34.6424C30.6854 34.6379 30.6261 34.6323 30.5671 34.6258C30.4657 34.6149 30.3643 34.6014 30.2634 34.5856C30.224 34.5791 30.182 34.5722 30.1415 34.5651C30.1231 34.5618 30.1048 34.5584 30.0864 34.5547L30.0821 34.5539C30.0238 34.5428 29.9658 34.5305 29.908 34.5172C29.8746 34.5097 29.841 34.5021 29.8079 34.4932L29.788 34.488C29.7716 34.484 29.7554 34.4796 29.7393 34.4752L29.7304 34.4729L29.6785 34.4579C29.6597 34.4526 29.641 34.447 29.6222 34.4415L29.6155 34.4394L29.5666 34.4245C29.5481 34.4188 29.5298 34.4127 29.5115 34.4069C29.4964 34.4018 29.4814 34.3966 29.4663 34.3917L29.4332 34.3801C29.4013 34.369 29.3697 34.3573 29.3381 34.3452L29.3082 34.3336L29.2835 34.3237C29.2359 34.3045 29.1885 34.2845 29.1417 34.2635L29.1104 34.2486L29.1052 34.2462C29.0941 34.241 29.0832 34.2358 29.0721 34.2311C29.0504 34.2207 29.0289 34.2099 29.0076 34.199L29.0012 34.1958L28.9703 34.1795C28.9154 34.151 28.8614 34.1204 28.8087 34.0878L28.7798 34.0701C28.7648 34.0611 28.7512 34.0518 28.7369 34.0426L28.6993 34.0176C28.6857 34.0085 28.6721 33.9992 28.6588 33.9897L28.6346 33.9725C28.6091 33.9542 28.584 33.9356 28.5593 33.9162C28.5462 33.9062 28.5333 33.8957 28.5203 33.8862C28.4916 33.8631 28.4636 33.8395 28.4358 33.8151L28.4347 33.8141C28.4076 33.7907 28.3812 33.7665 28.3555 33.7418L28.3542 33.7402C28.3407 33.7274 28.3276 33.7146 28.3145 33.7013C28.3016 33.6881 28.2885 33.675 28.2759 33.6617C28.2631 33.6483 28.2503 33.6346 28.2379 33.6207C28.2258 33.6076 28.214 33.5943 28.2023 33.5809L28.1983 33.5763C28.1376 33.5059 28.0808 33.4322 28.0282 33.3554L28.0074 33.3246C27.9936 33.3043 27.98 33.2838 27.9666 33.2633L27.9269 33.2023C27.9074 33.1726 27.8884 33.1425 27.8699 33.1123C27.8567 33.0908 27.8436 33.0693 27.8306 33.0476C27.8197 33.0291 27.8088 33.0108 27.7984 32.9926C27.7925 32.9827 27.7869 32.9727 27.7814 32.9626C27.7759 32.9522 27.7693 32.9416 27.7634 32.931L27.754 32.9143C27.7508 32.9088 27.7498 32.9071 27.7481 32.9034C27.7367 32.8834 27.7256 32.8631 27.7149 32.8424C27.71 32.8335 27.7051 32.8245 27.6999 32.8156L27.6848 32.7867L27.6698 32.7579L27.6409 32.6996C27.6362 32.69 27.6317 32.6805 27.6272 32.6709C27.6172 32.6502 27.6078 32.6299 27.5984 32.6096C27.5947 32.6013 27.5909 32.5931 27.5875 32.5849C27.5746 32.5568 27.5623 32.5284 27.5507 32.4997C27.5428 32.4807 27.5356 32.4619 27.5279 32.4431C27.5062 32.3876 27.4859 32.3317 27.4672 32.275C27.4617 32.2582 27.4561 32.2416 27.4512 32.2248C27.4391 32.1867 27.4282 32.1482 27.4185 32.1094C27.4066 32.0642 27.396 32.0185 27.3871 31.9726C27.3813 31.9456 27.3763 31.9183 27.3721 31.891C27.3676 31.8639 27.3637 31.8369 27.3605 31.81C27.3536 31.7564 27.3488 31.7026 27.3459 31.6487C27.3459 31.6398 27.3451 31.6307 27.3449 31.6218C27.344 31.604 27.3435 31.5862 27.3434 31.5684C27.334 30.8506 27.6974 30.1602 28.4741 29.3838C29.8576 28.0015 30.6631 25.9787 30.6631 25.9787C30.6631 25.9787 30.6847 25.8939 30.7299 25.7719C30.7451 25.7314 30.7609 25.6911 30.7775 25.6513C30.7965 25.6062 30.8168 25.5617 30.8387 25.518L30.845 25.5053C30.8731 25.4495 30.9035 25.3952 30.9366 25.3423C30.9442 25.33 30.9516 25.3178 30.9603 25.3057C30.9848 25.269 31.0109 25.2336 31.0383 25.1991C31.0594 25.1728 31.0819 25.1472 31.1056 25.123C31.1859 25.0404 31.2775 24.9728 31.3812 24.9367L31.3943 24.9325C31.403 24.9296 31.4116 24.9269 31.4205 24.9244C31.4309 24.9217 31.4413 24.9192 31.4517 24.917L31.4565 24.9162C31.4785 24.9118 31.5005 24.9088 31.5228 24.9073H31.5248C31.5364 24.9073 31.548 24.9061 31.56 24.9061C31.5897 24.9063 31.6193 24.9086 31.6487 24.9132C31.7733 24.9328 31.8921 25.0071 31.9943 25.1217L32.0081 25.1378C32.0413 25.1768 32.0716 25.2185 32.0985 25.2621C32.1186 25.2946 32.1376 25.3287 32.1556 25.3645C32.1628 25.3796 32.1697 25.3934 32.1766 25.4081C32.1799 25.4157 32.1833 25.4231 32.1865 25.4308C32.1932 25.4458 32.1994 25.4609 32.2056 25.4767C32.2408 25.5668 32.268 25.6597 32.2871 25.7544C32.3075 25.8568 32.3192 25.9606 32.3226 26.0649C32.3238 26.1108 32.3238 26.1572 32.3226 26.2042C32.3217 26.222 32.3209 26.24 32.3196 26.258C32.3058 26.4578 32.2623 26.6543 32.1904 26.8413C32.1831 26.8598 32.1752 26.8786 32.1678 26.8975C32.1317 26.9838 32.0897 27.0675 32.0423 27.1481C32.0153 27.1942 31.986 27.2399 31.9548 27.2852L31.9356 27.3125C31.8615 27.416 31.7789 27.5131 31.6885 27.6028C31.5994 27.692 31.504 27.7745 31.403 27.85C31.3017 27.9247 31.2068 28.0077 31.1191 28.0979C30.8665 28.3631 30.8077 28.5968 30.8645 28.7741C30.8712 28.794 30.8791 28.8137 30.8882 28.8327C30.9092 28.8739 30.9364 28.9117 30.969 28.9446L30.9779 28.9535C30.9872 28.9624 30.9969 28.971 31.0068 28.9792L31.0169 28.9874C31.0414 29.0063 31.0673 29.0231 31.0944 29.0377C31.1021 29.0419 31.1093 29.0461 31.1182 29.0501C31.1554 29.0686 31.1942 29.0834 31.2342 29.0946L31.2453 29.0975L31.2602 29.1015L31.2733 29.1047L31.2873 29.1077L31.3012 29.1106L31.3145 29.1128C31.3244 29.1146 31.3345 29.1161 31.3444 29.1175L31.3541 29.1188L31.3714 29.1207L31.3822 29.1217L31.4 29.123H31.4102L31.4287 29.1239H31.487L31.5037 29.123L31.5228 29.1219L31.5462 29.1197L31.568 29.117C31.5729 29.117 31.5779 29.1156 31.583 29.1148C31.6599 29.1035 31.7349 29.0819 31.8058 29.0503C31.8209 29.0439 31.8358 29.0368 31.8496 29.0294C31.8792 29.0147 31.9079 28.998 31.9355 28.9797C31.9739 28.9545 32.0102 28.9261 32.0443 28.8952L32.068 28.8727C32.0717 28.869 32.0756 28.8655 32.0791 28.8616C32.1023 28.8384 32.1242 28.8139 32.1445 28.7882C32.1804 28.7428 32.2124 28.6946 32.2401 28.6438C32.5689 28.046 32.9135 27.457 33.2736 26.8775L33.323 26.7983L33.3729 26.719C33.3979 26.679 33.4229 26.6394 33.448 26.6002L33.4733 26.5608L33.5239 26.482C33.5918 26.3769 33.6598 26.2731 33.7284 26.1703L33.7796 26.0937C33.8825 25.9414 33.9851 25.7932 34.0866 25.6523L34.1373 25.5827C34.2477 25.4302 34.3628 25.2811 34.4823 25.1356L34.5298 25.0788C34.5376 25.0693 34.5448 25.06 34.5534 25.0508L34.5999 24.9968C34.6076 24.9879 34.615 24.9792 34.6231 24.9706L34.6681 24.9197L34.6908 24.8952C34.7126 24.8715 34.7348 24.8481 34.7573 24.825C34.7725 24.81 34.7864 24.7949 34.801 24.7809C34.8862 24.6937 34.9801 24.6156 35.0814 24.5479L35.1048 24.5329L35.1285 24.5178C35.1436 24.5084 35.1589 24.4993 35.1745 24.4908C35.5717 24.2655 35.9007 24.2488 36.0899 24.438C36.2046 24.5528 36.268 24.7428 36.2646 25.0071C36.2646 25.0189 36.2646 25.0304 36.2636 25.0425V25.0557C36.2636 25.0676 36.2626 25.0798 36.2618 25.0921C36.2618 25.1071 36.2599 25.1222 36.2584 25.1371C36.2569 25.1523 36.2562 25.1637 36.2547 25.177C36.2547 25.1808 36.2539 25.1847 36.2534 25.1886C36.2522 25.2003 36.2507 25.2122 36.2492 25.224C36.2492 25.2277 36.2492 25.2312 36.2477 25.2349C36.246 25.2509 36.2436 25.2668 36.2408 25.2826C36.2389 25.2973 36.2366 25.3119 36.2337 25.3265C36.2325 25.3349 36.2309 25.3431 36.2295 25.3515C36.2251 25.3754 36.2194 25.3991 36.2125 25.4223C36.1996 25.4656 36.1838 25.5081 36.1652 25.5495C36.1571 25.5674 36.1485 25.5854 36.1398 25.6031C36.1216 25.6395 36.1011 25.6768 36.0786 25.7155C36.0674 25.7344 36.0558 25.7541 36.0433 25.7738L36.0245 25.8037C36.0054 25.8337 35.9854 25.8642 35.9645 25.8949C35.9437 25.9256 35.9214 25.9571 35.8973 25.9888C35.8663 26.0312 35.8335 26.0743 35.7989 26.118L35.7727 26.1511C35.6986 26.2434 35.6226 26.3341 35.545 26.4233L35.4833 26.493L35.4519 26.5283C35.4091 26.5762 35.3661 26.6238 35.3227 26.671L35.2894 26.7069C35.2674 26.7308 35.2444 26.755 35.2224 26.779C35.1999 26.8034 35.177 26.8276 35.1542 26.8518L35.085 26.9247L35.0149 26.9978C34.9915 27.0221 34.968 27.0468 34.9443 27.0712L34.8017 27.2182C34.1204 27.917 33.4024 28.6134 33.1595 29.0476C33.1434 29.076 33.1287 29.105 33.1155 29.1348C33.081 29.2138 33.0666 29.2813 33.0763 29.3359C33.0795 29.3539 33.0859 29.3712 33.0951 29.3868C33.1089 29.4105 33.1255 29.4323 33.1447 29.4518C33.1536 29.4606 33.1628 29.4688 33.1729 29.4762C33.2228 29.5118 33.2833 29.5301 33.3446 29.5283H33.3638L33.3835 29.5269L33.4033 29.5246L33.4196 29.5222C33.4218 29.5221 33.4239 29.5216 33.4261 29.5211L33.4411 29.5182L33.4451 29.5172L33.4616 29.5137L33.4675 29.5122L33.4851 29.5076L33.5061 29.5014C33.5199 29.4972 33.5337 29.4925 33.5478 29.4873C33.5782 29.4765 33.6079 29.4641 33.637 29.4502C33.6444 29.4466 33.6519 29.4433 33.6592 29.4394L33.6815 29.4283C33.7108 29.4135 33.7398 29.3976 33.7691 29.3803C33.7924 29.3665 33.8156 29.3524 33.8388 29.3374L33.8613 29.3225C33.8687 29.3178 33.8762 29.3129 33.8836 29.3073L33.906 29.2924L33.9177 29.2842L33.95 29.2616C33.9801 29.2408 34.0081 29.2195 34.0367 29.1978L34.0392 29.1959L34.0843 29.161C34.1459 29.1123 34.2046 29.0632 34.2575 29.017L34.2928 28.9859L34.2961 28.9829L34.3144 28.9666C34.3578 28.9278 34.3964 28.8915 34.4287 28.8614L34.4418 28.8487L34.4736 28.8186L34.4925 28.8001L34.4991 28.7934L34.5009 28.7915C34.5171 28.7754 34.5171 28.7754 34.5332 28.7591L34.5345 28.7578L34.5406 28.7524C34.5424 28.7504 34.545 28.7483 34.5478 28.7458L34.5502 28.7436L34.5566 28.7379L34.5907 28.7079L34.6098 28.6905C34.6192 28.6825 34.6295 28.6732 34.6399 28.6633L34.6629 28.6432C34.6669 28.6398 34.671 28.6359 34.6752 28.6322L34.6992 28.6112L34.7346 28.5803L34.7533 28.564C34.8264 28.5004 34.9154 28.4236 35.0174 28.337L35.0593 28.3018L35.1285 28.2438L35.1991 28.1846C35.2915 28.108 35.3909 28.0265 35.4961 27.9419L35.5652 27.8864C35.624 27.8397 35.6845 27.7918 35.7456 27.7438C35.7701 27.7244 35.7952 27.7051 35.8207 27.686C35.8834 27.6376 35.9464 27.5894 36.0096 27.5418C36.1537 27.4329 36.3024 27.3239 36.4528 27.2175L36.5175 27.1727C36.5625 27.1414 36.6075 27.1103 36.6527 27.0799L36.6936 27.0522C36.7744 26.9978 36.8559 26.9445 36.938 26.8924L36.9789 26.8667L37.0194 26.8415C37.0599 26.8165 37.1003 26.7916 37.1403 26.7676L37.1805 26.7437L37.261 26.6968C37.2873 26.6816 37.3136 26.6666 37.3398 26.6518L37.3556 26.6429L37.4181 26.6088C37.4439 26.5947 37.47 26.5811 37.4957 26.5678L37.5343 26.548L37.5716 26.529C37.657 26.4862 37.7439 26.4465 37.8322 26.4102C37.8443 26.4052 37.8563 26.4003 37.8682 26.3951C37.8919 26.3852 37.9154 26.3761 37.9388 26.368C37.9621 26.3601 37.9851 26.3519 38.0078 26.3438C38.0285 26.337 38.0485 26.3306 38.068 26.3245L38.0745 26.3225C38.0849 26.3193 38.0953 26.3163 38.1058 26.3136L38.1088 26.3128C38.13 26.3067 38.1511 26.3012 38.1725 26.2961H38.1741C38.2056 26.2886 38.2361 26.2822 38.2661 26.2771C38.2763 26.2755 38.2864 26.2738 38.2961 26.2724C38.3252 26.2681 38.3544 26.265 38.3837 26.263C38.4021 26.2617 38.4208 26.2612 38.4393 26.2612H38.4534C38.4722 26.2612 38.4904 26.2624 38.5083 26.2642C38.5166 26.2642 38.5248 26.2657 38.5329 26.2669H38.5362C38.5443 26.2677 38.5525 26.2691 38.5604 26.2708C38.5683 26.2724 38.5764 26.2736 38.5841 26.2755H38.5868C38.5945 26.2771 38.6018 26.2793 38.6098 26.2815C38.674 26.2988 38.733 26.3314 38.7819 26.3764L38.7862 26.3808L38.7948 26.3892L38.8032 26.3981C38.8706 26.469 38.9264 26.5502 38.9684 26.6385L38.9749 26.6535C38.9892 26.6871 39.0005 26.7219 39.0084 26.7575C39.0302 26.8568 39.0243 26.9603 38.9912 27.0564C38.9769 27.0982 38.9595 27.1389 38.9388 27.1779L38.925 27.2027C38.8726 27.2906 38.8108 27.3724 38.7404 27.4467L38.7252 27.4627C38.6921 27.4978 38.6577 27.5319 38.6222 27.5647C38.611 27.5752 38.5994 27.5858 38.5876 27.5964L38.5698 27.6125C38.5329 27.6453 38.4951 27.6772 38.4568 27.7085C38.45 27.7139 38.4431 27.7192 38.4366 27.7249C38.4099 27.7465 38.3823 27.7683 38.3538 27.7901C38.2553 27.8654 38.155 27.938 38.0528 28.0081C37.9927 28.0492 37.9305 28.0907 37.8663 28.1329C37.7467 28.2114 37.6262 28.2881 37.5046 28.3634C37.4695 28.3851 37.4342 28.4071 37.3982 28.4289C37.0677 28.6322 36.7013 28.8497 36.3105 29.0861L36.2093 29.1476C36.0986 29.2151 35.9941 29.2796 35.8958 29.3409L35.8463 29.3722L35.7525 29.4323C35.7154 29.4559 35.6792 29.4791 35.6441 29.5019C35.6176 29.5189 35.5917 29.5357 35.5663 29.5523L35.5163 29.5852C35.4919 29.6012 35.4677 29.6172 35.4435 29.6335L35.42 29.6484C35.3951 29.6651 35.3709 29.6814 35.3474 29.6975L35.3089 29.7237L35.2637 29.7551L35.2221 29.7842C35.1562 29.8304 35.0912 29.8776 35.0267 29.9256L35.0042 29.9428C34.9788 29.9619 34.9542 29.9811 34.9306 29.9997L34.8996 30.0244C34.8476 30.0663 34.8003 30.1064 34.7577 30.1447L34.7368 30.1639C34.7249 30.1748 34.7131 30.1857 34.7021 30.1965C34.6942 30.2039 34.6869 30.2114 34.679 30.2188L34.6681 30.2296C34.6441 30.2536 34.6207 30.2783 34.5981 30.3037L34.587 30.3165C34.5623 30.345 34.5408 30.3724 34.5218 30.3991L34.5134 30.4112C34.4915 30.4431 34.4722 30.4769 34.4557 30.512L34.45 30.5243L34.4465 30.5329L34.4436 30.5403L34.4398 30.5505C34.4386 30.554 34.4363 30.5602 34.4349 30.5656C34.428 30.5856 34.423 30.6063 34.4196 30.6273L34.4179 30.6385L34.4166 30.6488L34.4158 30.6587V30.7115C34.4158 30.7158 34.4158 30.7204 34.4168 30.7249C34.4169 30.7276 34.4173 30.7303 34.4176 30.733C34.4176 30.7373 34.4188 30.7417 34.4193 30.7462L34.4225 30.7647V30.7656C34.4237 30.7714 34.4248 30.7773 34.4263 30.7832C34.4279 30.7891 34.4294 30.7956 34.4312 30.8019C34.4366 30.8208 34.4431 30.8397 34.4507 30.858C34.4507 30.8593 34.4519 30.8608 34.4524 30.8622C34.4544 30.8667 34.4562 30.8714 34.4584 30.876C34.4667 30.8951 34.4759 30.9138 34.486 30.9321L34.4966 30.9511L34.5077 30.9702L34.5193 30.9894C34.5213 30.9926 34.5235 30.9954 34.526 30.9983L34.5298 31.0023L34.5339 31.006L34.5384 31.0095C34.5414 31.0117 34.5446 31.0136 34.548 31.0154C34.5513 31.0169 34.555 31.0186 34.5587 31.0199C34.5628 31.0213 34.5668 31.0225 34.5708 31.0235C34.6678 31.0453 34.867 30.965 35.1317 30.8252L35.1792 30.8L35.2597 30.7562L35.2992 30.7343C35.3271 30.7192 35.3558 30.7024 35.3849 30.6858L35.4381 30.6557C35.7881 30.4542 36.2063 30.1953 36.6385 29.9426C36.6788 29.9189 36.7194 29.8954 36.7601 29.8719L36.8418 29.8198C36.8826 29.7963 36.9233 29.7731 36.9641 29.7502C37.1378 29.6514 37.3139 29.5565 37.4918 29.4656L37.5716 29.4251C37.6247 29.3989 37.6773 29.3734 37.7292 29.3485C37.8299 29.3008 37.9315 29.2556 38.0342 29.2127L38.0905 29.1899L38.0974 29.1872C38.3954 29.0691 38.6658 28.996 38.8845 28.996C38.9319 28.9957 38.9791 28.9995 39.0258 29.0076H39.0272C39.0423 29.0103 39.0559 29.0133 39.0697 29.0168H39.0722C39.0924 29.0217 39.1122 29.0279 39.1313 29.0357C39.1466 29.0412 39.1614 29.0478 39.1757 29.0555C39.2384 29.0872 39.292 29.1341 39.332 29.1919C39.3353 29.1968 39.3385 29.2018 39.3415 29.207C39.3563 29.2295 39.3691 29.2532 39.3795 29.2781C39.3857 29.2924 39.3914 29.3072 39.3968 29.3231C39.4022 29.3393 39.4069 29.3547 39.4118 29.3714C39.4474 29.4987 39.4439 29.6335 39.4017 29.7588Z" fill="#808080"/>
<path fill-rule="evenodd" clip-rule="evenodd" d="M37.4194 20.6316V20.5493C37.4194 13.5171 31.7206 7.81641 24.6879 7.81641C17.6555 7.81641 11.9545 13.5174 11.9545 20.5493L11.9543 20.5769C11.9542 20.5952 11.954 20.6133 11.9543 20.6316C11.9551 20.659 11.9554 20.6864 11.9552 20.7138L11.9562 20.7743L11.9565 20.7961L11.9573 20.826C11.9577 20.8422 11.9582 20.8581 11.9582 20.8743L11.9599 20.9396L11.9626 21.0164L11.9634 21.0416L11.9668 21.1211V21.1248L11.9715 21.2177V21.22C11.9731 21.2518 11.9748 21.2835 11.9768 21.3151C11.9785 21.3445 11.9804 21.3738 11.9824 21.403L11.9829 21.4082C11.9844 21.4332 11.986 21.4585 11.9879 21.4835L11.9884 21.49C11.9901 21.5142 11.992 21.5386 11.994 21.5626L11.9943 21.5673L11.9977 21.6093C12.0077 21.7305 12.0195 21.8516 12.033 21.9724L12.0338 21.98L12.0439 22.0687L12.0555 22.1621C12.0632 22.2243 12.0715 22.2863 12.0803 22.3483C12.0856 22.3857 12.091 22.423 12.0966 22.4603L12.0975 22.4649C12.11 22.5492 12.1236 22.6336 12.1381 22.7176C12.1799 22.9614 12.229 23.204 12.2853 23.4449L12.2862 23.4488L12.2915 23.4715C12.2966 23.493 12.3016 23.5145 12.307 23.5362L12.3162 23.5249C12.6859 23.083 13.2161 22.8394 13.8094 22.8394C14.2849 22.8394 14.7728 22.9965 15.2616 23.3065C15.5859 23.5125 15.9444 23.8774 16.3134 24.3363C16.6548 23.8619 17.1333 23.5469 17.6807 23.4609C17.7852 23.4444 17.8907 23.436 17.9962 23.4359C19.2458 23.4359 19.9983 24.5202 20.2826 25.4954C20.4229 25.8251 21.1 27.3256 22.1209 28.3408C23.6725 29.8911 24.0608 31.491 23.293 33.2039H23.2955C23.3479 33.2096 23.4005 33.215 23.4533 33.2199C23.4847 33.2229 23.5161 33.2259 23.5475 33.2286L23.5586 33.2296C23.5816 33.2318 23.6048 33.2338 23.628 33.2355L23.6919 33.2407C23.7527 33.2454 23.8137 33.2496 23.875 33.2536L23.9234 33.2565L23.9619 33.2587L23.9859 33.26L24.0608 33.2641L24.0813 33.2649L24.1603 33.2683L24.2478 33.2716L24.3184 33.2736L24.3302 33.2741C24.3449 33.2746 24.3601 33.2753 24.375 33.2753L24.391 33.2757C24.4901 33.278 24.5891 33.2792 24.6882 33.2792H24.7934L24.8687 33.2783C24.8871 33.2773 24.9055 33.2773 24.9239 33.2773H24.9532L24.9785 33.2768C24.9885 33.2765 24.9985 33.2762 25.0085 33.2762H25.0385L25.0975 33.2745L25.1862 33.2715L25.284 33.2673C25.3121 33.2661 25.34 33.2647 25.368 33.2632L25.3981 33.2615L25.4426 33.259L25.469 33.2575L25.4886 33.2563L25.5789 33.2503C25.6089 33.2484 25.639 33.2461 25.6691 33.2437L25.7508 33.2373L25.8084 33.2325L25.8714 33.2268C25.9361 33.2207 26.0006 33.2143 26.0648 33.2076C26.1058 33.2031 26.1464 33.1985 26.1873 33.1937L26.259 33.1851C25.5031 31.4792 25.8944 29.8866 27.4398 28.3423C28.4584 27.3246 29.1355 25.8237 29.2766 25.4942C29.5611 24.5189 30.3129 23.4347 31.5628 23.4347C31.6685 23.4348 31.774 23.4431 31.8784 23.4597C32.4253 23.5457 32.9039 23.8609 33.2459 24.3351C33.615 23.8762 33.9734 23.5113 34.2977 23.3053C34.7864 22.9953 35.2747 22.8382 35.7497 22.8382C36.2732 22.8382 36.7479 23.0281 37.1062 23.3762C37.1259 23.2885 37.1449 23.2008 37.163 23.1128C37.1741 23.0578 37.185 23.0027 37.1958 22.9474C37.2089 22.8795 37.2213 22.8113 37.2328 22.7431C37.2358 22.7246 37.239 22.7062 37.2425 22.6875C37.2481 22.6584 37.2529 22.6297 37.2575 22.6005L37.2593 22.5894L37.2712 22.5133L37.283 22.4361L37.2832 22.4353C37.2879 22.403 37.2927 22.3706 37.2971 22.3382C37.3006 22.3137 37.304 22.2891 37.3072 22.2644L37.3092 22.2503L37.3196 22.17L37.3282 22.1016C37.3334 22.0566 37.3384 22.0116 37.3433 21.9664C37.3455 21.9484 37.3474 21.9302 37.3492 21.9121L37.3509 21.8975C37.3541 21.8674 37.3569 21.8375 37.3596 21.8074L37.3663 21.7375C37.3803 21.5826 37.3915 21.4277 37.4003 21.2725V21.2714L37.4048 21.1891L37.4057 21.1706L37.409 21.0925C37.4104 21.0631 37.4115 21.0334 37.4125 21.0033V21.0011L37.4134 20.9794C37.4142 20.9609 37.4149 20.9425 37.4149 20.9242L37.4152 20.9166C37.4159 20.8995 37.4166 20.8816 37.4166 20.864L37.4171 20.8489C37.4176 20.8312 37.4181 20.8138 37.4181 20.7961L37.4184 20.7812C37.4189 20.7587 37.4194 20.7363 37.4194 20.7138V20.6316ZM21.5298 33.3518C22.5381 31.8729 22.4667 30.7629 21.0831 29.3802C19.6994 27.9974 18.8941 25.9751 18.8941 25.9751C18.8941 25.9751 18.5935 24.8003 17.908 24.9084C17.2225 25.0162 16.7196 26.7715 18.1548 27.846C19.59 28.9205 17.8694 29.649 17.3169 28.6407C16.7643 27.6323 15.2562 25.0403 14.4741 24.5444C13.6921 24.0486 13.1422 24.3265 13.3265 25.3484C13.4181 25.8556 14.2696 26.7213 15.0652 27.5301C15.8723 28.3509 16.6219 29.1128 16.4617 29.3825C16.1437 29.9181 15.0235 28.7533 15.0235 28.7533C15.0235 28.7533 11.516 25.5614 10.7523 26.3933C10.0485 27.16 11.1339 27.8117 12.8067 28.8161C12.949 28.9016 13.0955 28.9897 13.2455 29.0804C15.1593 30.2391 15.3081 30.5447 15.0366 30.983C14.9363 31.145 14.2956 30.7604 13.5076 30.2873C12.1643 29.4808 10.3929 28.4174 10.1429 29.3692C9.92634 30.193 11.2295 30.6978 12.4113 31.1556C13.3959 31.537 14.2965 31.8858 14.1641 32.3593C14.0268 32.8501 13.2827 32.4408 12.4691 31.9932C11.556 31.4906 10.5554 30.94 10.2281 31.5614C9.60913 32.7358 14.4974 34.1184 14.5376 34.1285C16.117 34.5381 20.1279 35.4061 21.5298 33.3518ZM28.0261 33.3518C27.0176 31.8729 27.0892 30.7629 28.4728 29.3802C29.8564 27.9974 30.6619 25.9751 30.6619 25.9751C30.6619 25.9751 30.9623 24.8003 31.6479 24.9084C32.3334 25.0162 32.8364 26.7715 31.401 27.846C29.9657 28.9205 31.6865 29.649 32.2391 28.6407C32.7915 27.6323 34.299 25.0403 35.081 24.5444C35.8629 24.0486 36.413 24.3265 36.2287 25.3484C36.1371 25.8556 35.2856 26.7214 34.4899 27.5303C33.6829 28.3509 32.9334 29.1128 33.0935 29.3825C33.4114 29.9181 34.5325 28.7526 34.5325 28.7526C34.5325 28.7526 38.0399 25.5608 38.8036 26.3926C39.5074 27.1593 38.4218 27.8112 36.749 28.8158C36.6067 28.9011 36.4604 28.989 36.3103 29.0799C34.3965 30.2384 34.2478 30.5442 34.5193 30.9824C34.6196 31.1443 35.2602 30.7598 36.0481 30.2868C37.3915 29.4803 39.163 28.4167 39.413 29.3686C39.6295 30.1924 38.3264 30.6972 37.1444 31.1551C36.1598 31.5365 35.2594 31.8851 35.3916 32.3588C35.5289 32.8496 36.2727 32.4401 37.0859 31.9925C37.9991 31.49 38.9998 30.9392 39.3273 31.5607C39.9463 32.736 35.0573 34.1171 35.0176 34.1273C33.4382 34.5381 29.4273 35.4061 28.0261 33.3518Z" fill="#B5B5B5"/>
<path fill-rule="evenodd" clip-rule="evenodd" d="M28.8239 17.0836C29.0223 17.1538 29.17 17.3677 29.3105 17.571C29.5003 17.8461 29.6771 18.1018 29.9483 17.9576C30.2683 17.7876 30.5306 17.5265 30.7022 17.2073C30.8737 16.8881 30.9466 16.5252 30.9118 16.1645C30.886 15.8949 30.8006 15.6342 30.6618 15.4015C30.523 15.1688 30.3344 14.9698 30.1096 14.8187C29.8846 14.6677 29.6289 14.5685 29.361 14.5282C29.093 14.4879 28.8195 14.5075 28.5601 14.5857C28.2131 14.6902 27.905 14.8951 27.6745 15.1747C27.4441 15.4542 27.3016 15.7958 27.2652 16.1563C27.2289 16.5169 27.3003 16.8801 27.4703 17.2C27.596 17.4364 27.8749 17.325 28.1693 17.2073C28.4001 17.115 28.6404 17.0189 28.8239 17.0836ZM20.1918 17.0838C19.9934 17.154 19.8455 17.3679 19.705 17.5712C19.5152 17.8461 19.3384 18.102 19.0673 17.9578C18.8282 17.8306 18.6203 17.6518 18.4585 17.4346C18.2967 17.2173 18.1852 16.967 18.1317 16.7014C18.0783 16.4358 18.0843 16.1618 18.1495 15.8989C18.2149 15.636 18.3376 15.3908 18.5088 15.181C18.6803 14.9713 18.896 14.8022 19.1407 14.6858C19.3853 14.5695 19.6528 14.5089 19.9236 14.5083C20.1945 14.5077 20.4621 14.5672 20.7073 14.6824C20.9524 14.7976 21.169 14.9658 21.3414 15.1747C21.5719 15.4543 21.7144 15.796 21.7508 16.1565C21.7871 16.5171 21.7157 16.8803 21.5455 17.2002C21.4195 17.4366 21.1406 17.325 20.8462 17.2073C20.6155 17.115 20.3753 17.0189 20.1918 17.0838ZM27.4885 24.9388C28.8566 23.8608 29.3592 22.1011 29.3592 21.0171C29.3592 20.1602 28.7826 20.4298 27.8596 20.8867L27.8077 20.9126C26.9604 21.3321 25.8327 21.8906 24.5947 21.8906C23.3566 21.8906 22.2288 21.3319 21.3819 20.9124C20.429 20.4404 19.8314 20.1444 19.8314 21.0172C19.8314 22.1354 20.366 23.9717 21.8337 25.0386C22.0272 24.6454 22.2998 24.2964 22.6344 24.0135C22.969 23.7305 23.3584 23.5199 23.7783 23.3943C23.9248 23.3507 24.0757 23.6029 24.2303 23.8609C24.3793 24.1101 24.5315 24.3648 24.6866 24.3648C24.8516 24.3648 25.0139 24.1138 25.1724 23.8687C25.3379 23.6126 25.4991 23.3629 25.6552 23.4128C26.4409 23.665 27.098 24.2119 27.4885 24.9388Z" fill="#32343D"/>
<path d="M27.4883 24.94C26.7757 25.5015 25.8286 25.8781 24.5954 25.8781C23.4365 25.8781 22.5301 25.5457 21.834 25.0398C22.0277 24.6468 22.3004 24.2978 22.6349 24.0151C22.9694 23.7321 23.3589 23.5213 23.7786 23.3956C24.0664 23.3097 24.3712 24.3661 24.6868 24.3661C25.0246 24.3661 25.3501 23.3165 25.6556 23.4141C26.4409 23.6664 27.0978 24.2133 27.4883 24.94Z" fill="#999999"/>
<path fill-rule="evenodd" clip-rule="evenodd" d="M16.9183 18.6086C16.7883 18.6962 16.6423 18.7572 16.4887 18.7881C16.335 18.819 16.1768 18.8193 16.0231 18.7891C15.8693 18.7587 15.7231 18.6983 15.5927 18.6115C15.4623 18.5244 15.3504 18.4127 15.2633 18.2823C15.1762 18.1521 15.1157 18.0058 15.0852 17.8522C15.0548 17.6985 15.0549 17.5402 15.0857 17.3865C15.1165 17.2329 15.1774 17.0869 15.2647 16.9567C15.3521 16.8266 15.4643 16.715 15.5948 16.6283C15.8574 16.4541 16.1784 16.391 16.4875 16.4529C16.7965 16.5149 17.0684 16.6968 17.2436 16.9589C17.4187 17.221 17.4828 17.5417 17.4218 17.8509C17.3609 18.1602 17.1797 18.4327 16.9183 18.6086ZM33.9573 18.6086C33.8273 18.6962 33.6813 18.7572 33.5277 18.7881C33.3741 18.819 33.2159 18.8193 33.0621 18.7891C32.9084 18.7587 32.762 18.6983 32.6317 18.6115C32.5013 18.5244 32.3894 18.4127 32.3023 18.2823C32.2151 18.1521 32.1547 18.0058 32.1243 17.8522C32.0938 17.6985 32.094 17.5402 32.1248 17.3865C32.1555 17.2329 32.2163 17.0869 32.3037 16.9567C32.3911 16.8266 32.5033 16.715 32.6339 16.6283C32.8965 16.4541 33.2175 16.391 33.5265 16.4529C33.8355 16.5149 34.1074 16.6968 34.2826 16.9589C34.4577 17.221 34.5219 17.5417 34.4609 17.8509C34.3999 18.1602 34.2188 18.4327 33.9573 18.6086Z" fill="#818181"/>
</svg>
