<svg width="40" height="30" viewBox="0 0 40 30" fill="none" xmlns="http://www.w3.org/2000/svg">
<circle cx="19.9997" cy="14.9792" r="4.13156" stroke="white" stroke-width="2"/>
<path d="M29.2899 11.0434L31.7258 8.49823M38.1769 1.75781L31.7258 8.49823M31.7258 8.49823C28.8765 6.37112 24.9493 4.58388 19.7969 4.58388C15.1566 4.58388 11.5102 6.03344 8.7498 7.87536M11.9197 11.0434L8.7498 7.87536M2.62871 1.75781L8.7498 7.87536M11.9197 19.1179L8.33923 22.5407M2.62871 27.9998L8.33923 22.5407M8.33923 22.5407C11.1452 24.4411 14.9228 25.9812 19.7969 25.9812C25.1823 25.9812 29.2291 24.101 32.1057 21.9321M29.2899 19.1179L32.1057 21.9321M38.1769 27.9998L32.1057 21.9321M35.7532 18.4354C37.1313 16.7669 37.773 15.4844 37.773 15.4844C37.773 15.4844 37.1313 14.1526 35.7532 12.4199M4.4284 19.1179C2.64403 17.1299 1.8208 15.4844 1.8208 15.4844C1.8208 15.4844 2.64403 13.7756 4.4284 11.7111" stroke="white" stroke-width="2" stroke-linecap="square"/>
</svg>
