<svg width="40" height="40" viewBox="0 0 40 40" fill="none" xmlns="http://www.w3.org/2000/svg">
<path d="M20 39C11.7321 39 4.69766 33.7191 2.08571 26.3463M20 39C28.2679 39 35.3023 33.7191 37.9143 26.3463M20 39C20 39 10.4 39 10.4 20C10.4 1 20 1 20 1M20 39C20 39 29.6 39 29.6 20C29.6 1 20 1 20 1M20 39V1M20 1C11.7321 1 4.69766 6.28094 2.08571 13.6537M20 1C28.2679 1 35.3023 6.28094 37.9143 13.6537M2.08571 13.6537C1.38264 15.6383 1 17.7745 1 20C1 22.2255 1.38264 24.3617 2.08571 26.3463M2.08571 13.6537H37.9143M37.9143 13.6537C38.6174 15.6383 39 17.7745 39 20C39 22.2255 38.6174 24.3617 37.9143 26.3463M2.08571 26.3463H37.9143" stroke="white" stroke-width="2"/>
</svg>
