<svg width="123" height="37" viewBox="0 0 123 37" fill="none" xmlns="http://www.w3.org/2000/svg">
<g clip-path="url(#clip0_1193_244)">
<path d="M28.2072 9.01654V20.3124C28.2072 20.4955 28.1343 20.6711 28.0046 20.8006C27.8749 20.93 27.699 21.0028 27.5155 21.0028H23.9433C23.7599 21.0027 23.584 20.9299 23.4543 20.8005C23.3246 20.671 23.2517 20.4955 23.2516 20.3124V1.93914C23.2516 1.75604 23.3245 1.58043 23.4542 1.45096C23.5839 1.32149 23.7598 1.24875 23.9433 1.24875H27.249C27.4324 1.24875 27.6084 1.32149 27.7381 1.45096C27.8678 1.58043 27.9407 1.75604 27.9407 1.93914V4.52658C27.9407 4.52658 29.1224 0.835673 32.6294 0.835673C32.6294 0.835673 36.0983 0.417117 37.5087 4.26022C37.5087 4.26022 38.6904 0.835673 42.2737 0.835673C42.2737 0.835673 47.6025 0.519396 47.6025 6.02333L47.643 9.05459V20.3504C47.643 20.5335 47.5702 20.7091 47.4405 20.8386C47.3108 20.9681 47.1348 21.0408 46.9514 21.0408H43.3788C43.1954 21.0407 43.0195 20.968 42.8898 20.8385C42.7602 20.7091 42.6873 20.5335 42.6872 20.3504L42.6545 8.02723C42.7561 5.23675 40.4945 5.43979 40.4945 5.43979C37.6484 5.49062 37.9222 9.05459 37.9222 9.05459V20.3504C37.9222 20.5335 37.8493 20.7091 37.7196 20.8386C37.5899 20.9681 37.414 21.0408 37.2306 21.0408H33.6583C33.4749 21.0407 33.299 20.968 33.1693 20.8385C33.0396 20.7091 32.9667 20.5335 32.9667 20.3504V8.30606C32.9667 8.30606 33.1756 5.41422 30.634 5.41422C30.6343 5.41422 28.1184 5.08455 28.2072 9.01654ZM120.291 8.98275V20.2783C120.291 20.4614 120.218 20.6369 120.088 20.7664C119.958 20.8958 119.782 20.9686 119.599 20.9687L115.884 21.0405C115.7 21.0404 115.524 20.9677 115.395 20.8382C115.265 20.7088 115.192 20.5332 115.192 20.3501V8.30606C115.192 8.30606 115.401 5.41422 112.86 5.41422C112.86 5.41422 110.433 5.29489 110.433 9.82899V20.3121C110.432 20.4952 110.36 20.6707 110.23 20.8002C110.1 20.9296 109.924 21.0024 109.741 21.0025H106.168C105.985 21.0024 105.809 20.9296 105.679 20.8002C105.55 20.6707 105.477 20.4952 105.477 20.3121V1.93914C105.477 1.75606 105.55 1.5805 105.679 1.45105C105.809 1.32159 105.985 1.24883 106.168 1.24875H109.474C109.658 1.24875 109.833 1.32149 109.963 1.45096C110.093 1.58043 110.166 1.75604 110.166 1.93914V4.52658C110.166 4.52658 111.347 0.835673 114.854 0.835673C114.854 0.835673 118.611 0.266741 119.876 4.18869C119.877 4.18838 120.291 4.99749 120.291 8.98275ZM94.4973 0.759572C89.9291 0.759572 86.2253 4.60268 86.2253 11.0713C86.2253 16.7664 89.0843 21.383 94.4973 21.383C99.6054 21.383 102.769 16.7664 102.769 11.0713C102.769 4.71683 99.0659 0.759572 94.4973 0.759572ZM97.3807 11.2996C97.3807 13.7348 97.0757 15.0285 97.0757 15.0285C96.6418 17.6029 94.7696 17.6065 94.4937 17.5928C94.1957 17.6047 92.3077 17.5779 91.9171 15.0285C91.9171 15.0285 91.6121 13.7348 91.6121 11.2996V10.8938C91.6121 8.45857 91.9171 7.16485 91.9171 7.16485C92.3077 4.61546 94.196 4.58867 94.4937 4.60024C94.7696 4.58654 96.6418 4.58989 97.0757 7.16485C97.0757 7.16485 97.3807 8.45857 97.3807 10.8938V11.2996ZM84.1519 4.50101V1.86486C84.1519 1.68179 84.079 1.50623 83.9493 1.37677C83.8196 1.24732 83.6437 1.17456 83.4603 1.17447H71.6523C71.4689 1.17447 71.293 1.24721 71.1633 1.37668C71.0336 1.50616 70.9607 1.68176 70.9607 1.86486V4.48061C70.9608 4.66369 71.0337 4.83924 71.1634 4.9687C71.2931 5.09816 71.4689 5.17092 71.6523 5.171H77.8116L70.5213 15.7277C70.5213 15.7277 70.234 16.1557 70.2434 16.6285V19.8396C70.2434 19.8396 70.1959 20.9407 71.4468 20.3017C71.4468 20.3017 73.6687 18.9617 77.3944 18.9617C77.3944 18.9617 81.0737 18.9161 83.5268 20.4171C83.5268 20.4171 84.545 20.8792 84.545 19.8631V17.068C84.545 17.068 84.6374 16.3283 83.6655 15.8665C83.6655 15.8665 80.8422 14.319 77.1397 14.5728L84.1519 4.50101ZM20.4945 17.717L19.3762 16.0178C19.0203 15.3835 19.046 14.673 19.046 14.673V6.83487C19.1984 0.0618767 11.6761 0.64542 11.6761 0.64542C4.98895 0.64542 4.00119 5.84008 4.00119 5.84008C3.72246 6.88449 4.53304 6.90976 4.53304 6.90976L7.80066 7.24064C7.80066 7.24064 8.35781 7.36789 8.56061 6.70581C8.56061 6.70581 8.99091 4.43952 11.3973 4.43952C14.0157 4.43952 13.9885 6.68267 13.9885 6.68267V8.56054C8.76158 8.73497 6.3393 10.1833 6.3393 10.1833C3.11194 12.0097 3.31504 15.6373 3.31504 15.6373C3.31504 21.5476 8.95675 21.2938 8.95675 21.2938C12.5653 21.2938 14.7 18.6558 14.7 18.6558C15.3352 19.7724 16.5044 20.8372 16.5044 20.8372C17.0894 21.4703 17.699 20.9388 17.699 20.9388L20.342 18.6814C20.9263 18.2497 20.4945 17.717 20.4945 17.717ZM10.7179 17.644C9.02049 17.644 8.38953 15.9603 8.67131 14.3056C8.9534 12.6508 10.4184 11.3504 13.9889 11.3885V12.3945C14.1154 16.7895 12.1307 17.644 10.7179 17.644ZM67.966 17.717L66.848 16.0178C66.4922 15.3835 66.5175 14.673 66.5175 14.673V6.83487C66.6699 0.0618767 59.1476 0.64542 59.1476 0.64542C52.4605 0.64542 51.4727 5.84008 51.4727 5.84008C51.194 6.88449 52.0045 6.90976 52.0045 6.90976L55.2722 7.24064C55.2722 7.24064 55.8293 7.36789 56.0321 6.70581C56.0321 6.70581 56.4624 4.43952 58.8688 4.43952C61.4872 4.43952 61.4601 6.68267 61.4601 6.68267V8.56054C56.2334 8.73497 53.8108 10.1833 53.8108 10.1833C50.5834 12.0097 50.7865 15.6373 50.7865 15.6373C50.7865 21.5476 56.4283 21.2938 56.4283 21.2938C60.0368 21.2938 62.1715 18.6558 62.1715 18.6558C62.8071 19.7724 63.9757 20.8372 63.9757 20.8372C64.5606 21.4703 65.1705 20.9388 65.1705 20.9388L67.8132 18.6814C68.3978 18.2497 67.966 17.717 67.966 17.717ZM58.1894 17.644C56.492 17.644 55.861 15.9603 56.1428 14.3056C56.4249 12.6508 57.8899 11.3504 61.4601 11.3885V12.3945C61.5869 16.7895 59.6026 17.644 58.1894 17.644Z" fill="#E8E8E9"/>
<path d="M76.9589 32.5539C76.9589 32.5539 76.66 33.0729 77.0272 33.1889C77.0272 33.1889 77.442 33.3505 77.9592 32.8714C77.9592 32.8714 81.7312 29.5823 81.8221 23.5941C81.8221 23.5941 81.8498 22.8461 81.5491 22.6416C81.5491 22.6416 80.3674 21.5981 76.1181 21.9156C76.1181 21.9156 72.4141 22.1652 70.3919 23.9572C70.3919 23.9572 70.2102 24.1158 70.2102 24.3198C70.2102 24.3198 70.1666 24.7602 71.2782 24.5694C71.2782 24.5694 74.9819 24.0473 77.1861 24.3198C77.1861 24.3198 78.3227 24.4558 78.6407 24.8418C78.6407 24.8418 79.1634 25.2729 78.8905 26.7014C78.8905 26.702 78.1403 30.3311 76.9589 32.5539Z" fill="#E8E8E9"/>
<path d="M76.2122 26.8082C76.2122 26.8082 76.7654 27.5236 75.8727 28.1406C75.8727 28.1406 66.3376 35.7538 50.3274 35.7538C50.3274 35.7538 33.8469 36.5653 20.0857 24.0847C20.0857 24.0847 19.6032 23.6619 19.9027 23.2689C19.9027 23.2689 20.1704 22.9073 20.8636 23.3006C20.8636 23.3006 33.8087 31.3524 50.8101 31.3524C50.8101 31.3524 62.6272 31.809 74.7493 26.6341C74.7493 26.6341 75.7151 26.1346 76.2122 26.8082Z" fill="#E8E8E9"/>
</g>
<defs>
<clipPath id="clip0_1193_244">
<rect width="121.574" height="36.5033" fill="white" transform="translate(0.912109 0.0585938)"/>
</clipPath>
</defs>
</svg>
