<svg width="826" height="220" viewBox="0 0 826 220" fill="none" xmlns="http://www.w3.org/2000/svg">
<path d="M308.921 54.207H263.229C261.716 54.2061 260.253 54.7461 259.103 55.7298C257.953 56.7134 257.191 58.0761 256.955 59.5722L238.475 176.891C238.39 177.435 238.424 177.991 238.575 178.521C238.725 179.051 238.988 179.543 239.346 179.961C239.705 180.379 240.149 180.715 240.649 180.945C241.149 181.175 241.693 181.293 242.243 181.292H264.057C265.571 181.293 267.035 180.752 268.185 179.767C269.336 178.782 270.097 177.418 270.331 175.921L275.315 144.278C275.549 142.782 276.309 141.418 277.458 140.434C278.607 139.449 280.069 138.907 281.582 138.906H296.047C326.145 138.906 343.516 124.322 348.053 95.4227C350.097 82.779 348.139 72.8447 342.227 65.8874C335.733 58.2476 324.214 54.207 308.921 54.207ZM314.193 97.055C311.694 113.472 299.167 113.472 287.054 113.472H280.159L284.996 82.8125C285.138 81.9155 285.594 81.0986 286.284 80.5087C286.973 79.9188 287.851 79.5947 288.758 79.5947H291.918C300.169 79.5947 307.952 79.5947 311.974 84.3043C314.373 87.114 315.108 91.2884 314.193 97.055ZM445.503 96.5265H423.623C422.716 96.5265 421.839 96.8506 421.149 97.4405C420.46 98.0304 420.003 98.8473 419.861 99.7442L418.893 105.872L417.363 103.651C412.626 96.7673 402.063 94.466 391.52 94.466C367.341 94.466 346.69 112.803 342.668 138.525C340.576 151.356 343.549 163.625 350.818 172.181C357.486 180.048 367.027 183.326 378.378 183.326C397.86 183.326 408.664 170.783 408.664 170.783L407.688 176.871C407.601 177.415 407.633 177.971 407.782 178.502C407.931 179.033 408.192 179.525 408.549 179.945C408.906 180.364 409.35 180.702 409.849 180.933C410.349 181.165 410.893 181.285 411.443 181.286H431.152C432.666 181.286 434.13 180.746 435.28 179.76C436.431 178.775 437.192 177.411 437.426 175.914L449.252 100.928C449.339 100.385 449.307 99.8297 449.158 99.3002C449.01 98.7706 448.749 98.2795 448.392 97.861C448.036 97.4424 447.593 97.1064 447.094 96.876C446.596 96.6455 446.053 96.5263 445.503 96.5265ZM415.004 139.167C412.893 151.684 402.971 160.086 390.317 160.086C383.964 160.086 378.886 158.046 375.626 154.179C372.392 150.339 371.163 144.873 372.191 138.786C374.162 126.376 384.251 117.7 396.711 117.7C402.925 117.7 407.976 119.767 411.303 123.667C414.637 127.607 415.959 133.106 415.004 139.167ZM562.036 96.5265H540.048C539.011 96.5281 537.99 96.7831 537.074 97.2692C536.158 97.7553 535.374 98.4579 534.79 99.3161L504.464 144.044L491.61 101.062C491.215 99.7512 490.41 98.6023 489.312 97.7854C488.215 96.9686 486.884 96.5271 485.517 96.5265H463.91C463.303 96.5249 462.705 96.6683 462.165 96.9449C461.625 97.2215 461.159 97.6232 460.806 98.1167C460.452 98.6101 460.221 99.1809 460.133 99.7817C460.044 100.382 460.1 100.996 460.295 101.571L484.514 172.736L461.745 204.921C461.341 205.491 461.101 206.162 461.051 206.861C461.002 207.559 461.146 208.257 461.467 208.879C461.788 209.5 462.273 210.022 462.87 210.386C463.467 210.749 464.153 210.942 464.852 210.941H486.813C487.838 210.943 488.849 210.695 489.757 210.22C490.666 209.745 491.446 209.056 492.031 208.212L565.162 102.514C565.559 101.942 565.791 101.272 565.835 100.578C565.878 99.8829 565.731 99.1895 565.409 98.5727C565.086 97.9559 564.602 97.4391 564.007 97.0784C563.413 96.7177 562.731 96.5268 562.036 96.5265Z" fill="#B5B5B5"/>
<path d="M634.832 54.2059H589.134C587.622 54.2065 586.16 54.7473 585.012 55.7308C583.863 56.7143 583.102 58.0761 582.867 59.5711L564.387 176.889C564.301 177.433 564.333 177.989 564.483 178.518C564.632 179.048 564.894 179.539 565.251 179.957C565.608 180.375 566.051 180.711 566.55 180.942C567.049 181.172 567.592 181.291 568.141 181.291H591.592C592.65 181.29 593.673 180.91 594.476 180.221C595.28 179.532 595.811 178.578 595.975 177.532L601.22 144.277C601.454 142.781 602.214 141.417 603.363 140.432C604.512 139.448 605.974 138.906 607.487 138.905H621.945C652.05 138.905 669.414 124.321 673.957 95.4215C676.008 82.7779 674.037 72.8436 668.124 65.8862C661.637 58.2465 650.126 54.2059 634.832 54.2059ZM640.104 97.0538C637.612 113.471 625.085 113.471 612.965 113.471H606.077L610.921 82.8113C611.06 81.9143 611.515 81.0967 612.203 80.5065C612.892 79.9163 613.769 79.5924 614.675 79.5936H617.836C626.08 79.5936 633.87 79.5936 637.892 84.3032C640.291 87.1129 641.019 91.2873 640.104 97.0538ZM771.408 96.5253H749.541C748.634 96.5229 747.756 96.8462 747.067 97.4367C746.378 98.0272 745.923 98.8455 745.786 99.7431L744.817 105.871L743.28 103.65C738.544 96.7662 727.987 94.4649 717.445 94.4649C693.266 94.4649 672.621 112.802 668.599 138.524C666.514 151.355 669.474 163.624 676.743 172.18C683.424 180.047 692.952 183.325 704.303 183.325C723.785 183.325 734.588 170.782 734.588 170.782L733.613 176.869C733.526 177.415 733.558 177.973 733.707 178.504C733.857 179.036 734.12 179.529 734.478 179.949C734.837 180.369 735.282 180.706 735.783 180.936C736.284 181.167 736.829 181.286 737.381 181.285H757.084C758.596 181.284 760.059 180.742 761.208 179.757C762.357 178.772 763.117 177.409 763.351 175.913L775.183 100.927C775.267 100.382 775.232 99.8259 775.081 99.2959C774.929 98.7659 774.665 98.2749 774.307 97.8567C773.948 97.4385 773.503 97.103 773.003 96.8732C772.503 96.6434 771.959 96.5247 771.408 96.5253ZM740.909 139.166C738.811 151.682 728.876 160.085 716.222 160.085C709.882 160.085 704.79 158.044 701.53 154.178C698.296 150.338 697.08 144.872 698.096 138.785C700.08 126.375 710.155 117.698 722.616 117.698C728.829 117.698 733.88 119.766 737.207 123.666C740.555 127.606 741.877 133.105 740.909 139.166ZM797.204 57.4237L778.45 176.889C778.364 177.433 778.397 177.989 778.546 178.518C778.695 179.048 778.957 179.539 779.314 179.957C779.671 180.375 780.114 180.711 780.613 180.942C781.112 181.172 781.655 181.291 782.205 181.291H801.059C804.192 181.291 806.851 179.017 807.332 175.919L825.826 58.6078C825.912 58.064 825.879 57.508 825.73 56.9781C825.581 56.4482 825.319 55.957 824.962 55.5381C824.605 55.1192 824.162 54.7826 823.663 54.5515C823.164 54.3204 822.621 54.2002 822.071 54.1992H800.959C800.052 54.2024 799.177 54.5287 798.489 55.1195C797.801 55.7104 797.345 56.5272 797.204 57.4237Z" fill="white"/>
<path d="M48.7259 204.089L52.2202 181.866L44.4366 181.685H7.26953L33.0988 17.6991C33.1757 17.1981 33.4298 16.7414 33.8149 16.4123C34.2 16.0832 34.6904 15.9036 35.1966 15.9063H97.8656C118.671 15.9063 133.028 20.2412 140.525 28.7975C144.039 32.8113 146.277 37.0058 147.359 41.6217C148.495 46.4651 148.515 52.2518 147.406 59.3095L147.326 59.8246V64.3469L150.84 66.3404C153.523 67.7014 155.935 69.5424 157.956 71.7725C160.962 75.2043 162.906 79.5661 163.728 84.7373C164.577 90.0556 164.296 96.3841 162.906 103.549C161.303 111.791 158.711 118.969 155.21 124.842C152.121 130.104 147.968 134.661 143.017 138.222C138.367 141.527 132.841 144.035 126.594 145.641C120.541 147.22 113.64 148.016 106.07 148.016H101.193C97.7053 148.016 94.3179 149.273 91.6589 151.528C89.0035 153.806 87.2421 156.955 86.6881 160.412L86.3206 162.412L80.1473 201.581L79.8667 203.019C79.7932 203.474 79.6662 203.701 79.4792 203.855C79.2979 204.004 79.0718 204.086 78.8378 204.089H48.7259Z" fill="#ADADAD"/>
<path d="M154.165 60.3477C153.978 61.5451 153.764 62.7694 153.523 64.027C145.259 106.514 116.984 121.191 80.8729 121.191H62.4865C58.0702 121.191 54.3488 124.402 53.6607 128.764L44.247 188.544L41.5812 205.489C41.475 206.161 41.5156 206.848 41.7 207.503C41.8845 208.158 42.2086 208.765 42.6499 209.283C43.0912 209.8 43.6393 210.216 44.2564 210.501C44.8735 210.786 45.545 210.934 46.2246 210.934H78.8352C82.6969 210.934 85.9773 208.125 86.5853 204.311L86.906 202.652L93.0459 163.638L93.4401 161.497C94.0414 157.67 97.3285 154.861 101.19 154.861H106.067C137.662 154.861 162.396 142.016 169.625 104.848C172.645 89.321 171.081 76.3563 163.091 67.2381C160.558 64.4175 157.534 62.0825 154.165 60.3477Z" fill="white"/>
<path d="M145.519 56.8945C142.88 56.1302 140.196 55.5336 137.482 55.1083C132.119 54.2831 126.699 53.8872 121.273 53.9243H72.1535C70.2842 53.9228 68.476 54.591 67.0558 55.8082C65.6356 57.0253 64.6972 58.711 64.4101 60.5605L53.9608 126.829L53.6602 128.763C53.9857 126.653 55.0545 124.73 56.6734 123.341C58.2922 121.952 60.354 121.189 62.4859 121.19H80.8724C116.984 121.19 145.258 106.506 153.523 64.0258C153.77 62.7681 153.977 61.5439 154.164 60.3464C151.984 59.2013 149.711 58.2413 147.37 57.4765C146.756 57.2726 146.139 57.0786 145.519 56.8945Z" fill="white"/>
<path d="M64.4114 60.5631C64.6961 58.713 65.6341 57.0265 67.0549 55.81C68.4758 54.5935 70.2854 53.9277 72.1549 53.9335H121.275C127.094 53.9335 132.526 54.3148 137.483 55.1176C140.838 55.6455 144.146 56.4351 147.378 57.4791C149.816 58.2886 152.081 59.2452 154.172 60.349C156.631 44.6481 154.152 33.9579 145.674 24.2778C136.327 13.621 119.457 9.05859 97.8705 9.05859H35.2016C30.792 9.05859 27.0305 12.2697 26.3491 16.6381L0.245896 182.31C0.124311 183.079 0.17057 183.866 0.381489 184.615C0.592409 185.365 0.962983 186.06 1.46772 186.652C1.97246 187.245 2.59938 187.721 3.30537 188.047C4.01135 188.374 4.77964 188.544 5.55739 188.545H44.2478L53.9622 126.832L64.4114 60.5631Z" fill="#B5B5B5"/>
</svg>
