<svg width="529" height="184" viewBox="0 0 529 184" fill="none" xmlns="http://www.w3.org/2000/svg">
<g clip-path="url(#clip0_876_3899)">
<path d="M30.4352 131.168C32.6707 137.1 35.7657 142.173 39.7207 146.385C43.6758 150.598 48.3614 153.822 53.7775 156.058C59.1941 158.293 65.0834 159.411 71.4457 159.411C77.6363 159.411 83.4393 158.25 88.856 155.928C94.2727 153.606 99.0011 150.34 103.042 146.127C107.082 141.914 110.221 136.885 112.456 131.039C114.692 125.192 115.809 118.659 115.809 111.436V0.0117188H142.891V180.56H116.067V163.795C110.049 170.157 102.956 175.057 94.788 178.497C86.6199 181.936 77.8081 183.655 68.3507 183.655C58.721 183.655 49.7368 181.978 41.3969 178.625C33.0576 175.272 25.8352 170.501 19.7314 164.311C13.6276 158.12 8.81243 150.684 5.28769 142C1.76237 133.317 0 123.645 0 112.983V0.0117188H27.0822V111.436C27.0822 118.659 28.1997 125.235 30.4352 131.168ZM189.574 0.0117188V65.7828C195.592 59.7646 202.556 54.9934 210.466 51.4681C218.376 47.9428 226.973 46.1804 236.258 46.1804C245.888 46.1804 254.915 47.9856 263.341 51.5965C271.766 55.2074 279.074 60.1082 285.264 66.2987C291.455 72.4893 296.355 79.7968 299.966 88.2222C303.577 96.6483 305.382 105.59 305.382 115.047C305.382 124.504 303.577 133.402 299.966 141.742C296.355 150.082 291.455 157.347 285.264 163.536C279.074 169.727 271.766 174.628 263.341 178.239C254.915 181.849 245.888 183.655 236.258 183.655C226.973 183.655 218.333 181.892 210.337 178.367C202.341 174.842 195.334 170.07 189.316 164.052V180.56H163.523V0.0117188H189.574ZM192.54 132.844C194.861 138.347 198.085 143.161 202.212 147.288C206.339 151.415 211.154 154.682 216.656 157.089C222.159 159.497 228.091 160.7 234.453 160.7C240.644 160.7 246.49 159.497 251.992 157.089C257.494 154.682 262.265 151.415 266.307 147.288C270.348 143.162 273.572 138.347 275.979 132.844C278.386 127.341 279.59 121.409 279.59 115.047C279.59 108.685 278.386 102.709 275.979 97.1209C273.572 91.5324 270.348 86.675 266.307 82.5482C262.266 78.4219 257.495 75.1973 251.992 72.8762C246.489 70.5551 240.643 69.3937 234.453 69.3937C228.263 69.3937 222.417 70.5546 216.915 72.8762C211.412 75.1979 206.598 78.4219 202.47 82.5482C198.344 86.675 195.077 91.5324 192.669 97.1209C190.262 102.709 189.058 108.685 189.058 115.047C189.058 121.409 190.219 127.341 192.54 132.844ZM320.082 88.4808C323.52 80.2271 328.25 72.9624 334.268 66.6862C340.285 60.4101 347.422 55.4665 355.676 51.8556C363.929 48.2447 372.871 46.4395 382.5 46.4395C391.957 46.4395 400.727 48.1591 408.809 51.5976C416.89 55.0368 423.854 59.8085 429.701 65.9129C435.547 72.0167 440.104 79.2392 443.37 87.5785C446.638 95.9184 448.271 104.989 448.271 114.79V123.302H341.232C342.092 128.632 343.812 133.576 346.391 138.132C348.97 142.689 352.194 146.644 356.063 149.997C359.932 153.35 364.316 155.973 369.217 157.863C374.118 159.755 379.319 160.701 384.822 160.701C400.47 160.701 413.108 154.252 422.737 141.356L441.566 155.284C435.032 164.053 426.95 170.932 417.321 175.918C407.691 180.904 396.859 183.398 384.822 183.398C375.021 183.398 365.865 181.678 357.353 178.239C348.841 174.801 341.448 169.985 335.172 163.795C328.895 157.604 323.952 150.34 320.341 142C316.73 133.661 314.924 124.59 314.924 114.789C314.923 105.504 316.643 96.7345 320.082 88.4808ZM356.321 78.2923C349.013 84.3967 344.155 92.5214 341.748 102.667H421.963C419.728 92.5214 414.956 84.3967 407.648 78.2923C400.34 72.1885 391.786 69.1363 381.985 69.1363C372.183 69.1363 363.629 72.1885 356.321 78.2923ZM497.018 81.2584C491.515 87.2766 488.764 95.4441 488.764 105.762V180.561H462.713V49.018H488.505V65.2674C491.773 59.937 496.029 55.7239 501.273 52.6289C506.517 49.5334 512.751 47.9856 519.973 47.9856H529V72.2308H518.167C509.57 72.2313 502.52 75.2402 497.018 81.2584Z" fill="white"/>
</g>
<defs>
<clipPath id="clip0_876_3899">
<rect width="529" height="183.669" fill="white"/>
</clipPath>
</defs>
</svg>
