<svg width="944" height="323" viewBox="0 0 944 323" fill="none" xmlns="http://www.w3.org/2000/svg">
<g clip-path="url(#clip0_876_3889)">
<path d="M219.571 171.629C219.181 130.758 252.953 111.12 254.472 110.185C235.463 82.405 205.938 78.5867 195.421 78.1581C170.297 75.5865 146.38 92.9639 133.604 92.9639C120.828 92.9639 101.157 78.5087 80.3176 78.9373C52.8955 79.327 27.6157 94.873 13.4761 119.419C-14.9588 168.746 6.23107 241.996 34.0038 282.088C47.598 301.687 63.7241 323.778 84.9919 322.96C105.481 322.142 113.193 309.713 137.889 309.713C162.584 309.713 169.557 322.96 191.175 322.571C213.183 322.142 227.127 302.544 240.605 282.868C256.108 260.074 262.535 238.061 262.924 236.892C262.418 236.697 220.038 220.45 219.571 171.629Z" fill="white"/>
<path d="M178.946 51.5865C190.242 37.9106 197.838 18.9358 195.773 0C179.53 0.662364 159.86 10.8316 148.213 24.5075C137.774 36.5859 128.62 55.9113 131.113 74.4576C149.148 75.8602 167.689 65.2234 178.946 51.5865ZM362.02 211.801L343.323 268.491H319.29L380.483 88.3282H408.529L469.956 268.491H445.105L425.862 211.801H362.02ZM421.071 193.605L403.465 141.746C399.453 129.979 396.804 119.304 394.117 108.862H393.61C390.922 119.537 388.001 130.486 384.534 141.473L366.928 193.566L421.071 193.605ZM488.185 181.332C488.185 164.773 487.679 151.37 487.095 139.097H508.207L509.297 161.305H509.804C519.425 145.525 534.655 136.174 555.767 136.174C587.046 136.174 610.534 162.63 610.534 201.943C610.534 248.465 582.215 271.414 551.755 271.414C534.655 271.414 519.698 263.933 511.946 251.114H511.44V321.403H488.185V181.332ZM511.401 215.814C511.401 219.321 511.907 222.476 512.491 225.438C516.776 241.724 530.916 252.984 547.782 252.984C572.633 252.984 587.084 232.685 587.084 202.995C587.084 177.046 573.451 154.915 548.6 154.915C532.591 154.915 517.633 166.409 513.037 184.059C512.219 186.982 511.44 190.488 511.44 193.683L511.401 215.814ZM634.84 181.332C634.84 164.773 634.333 151.37 633.749 139.097H654.861L655.951 161.305H656.458C666.079 145.525 681.309 136.174 702.421 136.174C733.7 136.174 757.188 162.63 757.188 201.943C757.188 248.465 728.869 271.414 698.409 271.414C681.309 271.414 666.352 263.933 658.6 251.114H658.094V321.403H634.84V181.332ZM658.094 215.814C658.094 219.321 658.6 222.476 659.185 225.438C663.469 241.724 677.609 252.984 694.475 252.984C719.326 252.984 733.777 232.685 733.777 202.995C733.777 177.046 720.144 154.915 695.293 154.915C679.284 154.915 664.326 166.409 659.73 184.059C658.912 186.982 658.133 190.488 658.133 193.683L658.094 215.814ZM781.532 78.7045H805.059V268.452H781.532V78.7045ZM852.347 208.06C852.853 239.854 873.186 252.984 896.674 252.984C913.502 252.984 923.668 250.062 932.471 246.322L936.483 263.153C928.225 266.894 914.047 271.18 893.48 271.18C853.671 271.18 829.872 244.997 829.872 205.956C829.872 166.916 852.853 136.174 890.52 136.174C932.744 136.174 943.962 173.306 943.962 197.112C943.962 201.943 943.456 205.645 943.144 208.06H852.347ZM921.292 191.228C921.565 176.267 915.138 153.006 888.689 153.006C864.89 153.006 854.489 174.942 852.62 191.228H921.292Z" fill="white"/>
</g>
<defs>
<clipPath id="clip0_876_3889">
<rect width="944" height="323" fill="white"/>
</clipPath>
</defs>
</svg>
