<svg width="381" height="155" viewBox="0 0 381 155" fill="none" xmlns="http://www.w3.org/2000/svg">
<path d="M380.317 77.6078C380.317 76.6071 380.317 75.5713 380.317 74.499C380.317 73.356 380.211 72.2479 379.996 71.1764C379.853 70.1041 379.746 69.0322 379.674 67.9604C379.603 66.8884 379.46 65.8879 379.245 64.959H319.54L301.424 93.3647H347.302C345.944 98.153 343.979 102.512 341.407 106.442C338.905 110.301 335.904 113.66 332.402 116.518V116.625C328.758 119.484 324.72 121.735 320.29 123.379C315.931 124.951 311.286 125.737 306.355 125.737C306.212 125.737 306.069 125.737 305.926 125.737C305.854 125.737 305.819 125.737 305.819 125.737C299.387 125.737 293.313 124.451 287.596 121.878C281.879 119.306 276.984 115.875 272.911 111.587C268.695 107.085 265.372 101.94 262.942 96.1516C260.512 90.3633 259.298 84.1822 259.298 77.6078C259.298 77.5363 259.298 77.5005 259.298 77.5005C259.298 77.429 259.298 77.3217 259.298 77.1786C259.298 70.6757 260.512 64.5659 262.942 58.849C265.372 53.0607 268.73 48.0227 273.018 43.7349C277.234 39.4473 282.201 36.0171 287.918 33.4445C293.635 30.8719 299.709 29.5856 306.14 29.5856C306.14 29.5856 306.177 29.5856 306.248 29.5856C306.319 29.5856 306.355 29.5856 306.355 29.5856C306.355 29.5856 306.392 29.5856 306.462 29.5856C306.605 29.5856 306.676 29.5856 306.676 29.5856C309.392 29.5856 312.072 29.836 314.716 30.336C317.431 30.7646 320.04 31.4079 322.541 32.2654L322.005 32.0508C324.578 32.9799 326.971 34.0518 329.187 35.2666C331.402 36.4815 333.474 37.8035 335.404 39.2327V39.1254L343.444 26.3696L351.483 13.5065C348.481 11.4342 345.265 9.57617 341.835 7.93256C338.477 6.28895 334.975 4.89549 331.33 3.75211L330.795 3.53752C327.222 2.53705 323.398 1.75096 319.325 1.1793C315.252 0.536106 311.143 0.214537 306.998 0.214537C306.855 0.214537 306.748 0.214537 306.676 0.214537C306.676 0.214537 306.605 0.214537 306.462 0.214537C306.391 0.214537 306.284 0.214537 306.14 0.214537C306.069 0.214537 305.962 0.214537 305.819 0.214537C300.316 0.214537 294.957 0.71472 289.74 1.71525C284.595 2.71566 279.592 4.21637 274.733 6.21732L275.376 6.00273C270.66 8.0751 266.265 10.4691 262.192 13.1846C258.119 15.9001 254.403 18.9373 251.044 22.2959C247.042 26.5121 243.647 30.6569 240.86 34.7302C238.145 38.9464 235.894 43.0555 234.108 47.0573C232.321 51.0591 230.856 55.0967 229.713 59.17C228.641 63.1003 227.676 66.995 226.819 70.8539C225.175 78.429 223.46 85.6465 221.673 92.5064C219.887 99.367 216.206 105.549 210.633 111.051C208.489 113.266 206.13 115.303 203.557 117.161C201.057 118.947 198.448 120.448 195.733 121.663L195.411 121.877C192.695 122.949 189.837 123.807 186.836 124.45C183.906 125.093 180.798 125.414 177.51 125.414C177.51 125.414 177.439 125.414 177.296 125.414C177.224 125.414 177.188 125.414 177.188 125.414C170.543 125.414 164.29 124.128 158.43 121.556C152.57 118.983 147.425 115.482 142.994 111.051C138.706 106.835 135.277 101.797 132.704 95.937C130.131 90.0057 128.845 83.7167 128.845 77.0707C128.845 70.6393 130.096 64.5653 132.596 58.8483C135.098 53.06 138.528 48.022 142.887 43.7343C147.246 39.3752 152.355 35.9093 158.215 33.3367C164.075 30.6926 170.328 29.3706 176.974 29.3706C179.761 29.3706 182.476 29.621 185.121 30.121C187.765 30.5496 190.373 31.1571 192.946 31.9432H192.517C195.09 32.7293 197.448 33.7297 199.592 34.9446C201.736 36.0879 203.808 37.3742 205.809 38.8035H205.595L213.741 26.0476L221.994 13.0774C219.065 11.0765 215.884 9.25423 212.454 7.61062C209.096 5.96701 205.559 4.57355 201.843 3.43012H201.413C197.841 2.28675 194.017 1.42923 189.944 0.857517C185.942 0.285857 181.833 0 177.617 0C177.546 0 177.438 0 177.295 0C177.224 0 177.152 0 177.081 0C177.081 0 177.044 0 176.974 0C176.902 0 176.867 0 176.867 0C170.221 0 163.789 0.821805 157.572 2.46542C151.427 4.03755 145.638 6.25287 140.207 9.11128L140.529 9.00399C135.169 11.7195 130.238 15.0424 125.736 18.9728C121.234 22.9031 117.232 27.2266 113.73 31.943L113.516 32.0503C112.087 27.7626 110.014 23.868 107.299 20.3664C104.583 16.7933 101.367 13.8277 97.6514 11.4695H97.5441C93.6141 8.89685 89.2908 6.89596 84.574 5.46673C79.858 3.96607 74.9266 3.21569 69.7817 3.21569C69.5671 3.21569 69.3888 3.21569 69.2457 3.21569C69.1027 3.21569 68.9954 3.21569 68.9244 3.21569H0V151.784H76.1064C76.2495 151.784 76.392 151.784 76.5351 151.784C76.6781 151.784 76.7854 151.784 76.8569 151.784C81.4306 151.784 85.7898 151.212 89.9343 150.069C94.0788 148.997 98.0095 147.46 101.726 145.46L101.404 145.567C104.905 143.637 108.05 141.351 110.836 138.706C113.695 135.991 116.089 132.989 118.018 129.702L118.233 129.381C121.663 133.311 125.486 136.813 129.702 139.886C133.919 142.958 138.385 145.638 143.101 147.925L143.637 148.032C148.354 150.176 153.428 151.855 158.859 153.07C164.29 154.357 169.935 155 175.795 155C175.795 155 175.832 155 175.902 155C175.974 155 176.045 155 176.117 155C176.26 155 176.367 155 176.438 155C176.51 155 176.617 155 176.76 155C183.406 155 189.873 154.178 196.161 152.534C202.45 150.962 208.31 148.675 213.741 145.674L213.419 145.995C218.993 143.066 224.031 139.6 228.533 135.598C233.035 131.525 237.038 127.022 240.539 122.092L240.646 121.77C244.076 126.772 248.006 131.31 252.437 135.384C256.939 139.385 261.799 142.815 267.015 145.674L267.337 145.888C272.768 148.747 278.628 150.962 284.916 152.534C291.205 154.178 297.743 155 304.532 155C304.532 155 304.569 155 304.64 155C304.711 155 304.819 155 304.962 155C305.033 155 305.104 155 305.176 155C305.247 155 305.283 155 305.283 155C310.5 155 315.573 154.464 320.504 153.392C325.435 152.32 330.152 150.784 334.654 148.783C339.227 146.853 343.515 144.495 347.517 141.708C351.519 138.85 355.199 135.669 358.557 132.168C361.987 128.738 365.024 124.95 367.669 120.806C370.313 116.732 372.564 112.409 374.422 107.835C376.28 103.262 377.709 98.4739 378.71 93.4716C379.781 88.541 380.317 83.3958 380.317 78.0359C380.317 77.9644 380.317 77.8929 380.317 77.8213C380.317 77.7503 380.317 77.6793 380.317 77.6078ZM32.0509 63.5655V30.6575H68.6034C68.6749 30.6575 68.7107 30.6575 68.7107 30.6575C70.9976 30.6575 73.1056 31.0862 75.0348 31.9438C76.9648 32.7299 78.7151 33.8732 80.2874 35.374H80.1801C81.6808 36.8747 82.8246 38.5898 83.6107 40.5192C84.4677 42.4486 84.8969 44.5211 84.8969 46.7363C84.8969 46.7363 84.8969 46.7731 84.8969 46.8436C84.8969 46.9152 84.8969 46.9509 84.8969 46.9509C84.8969 47.094 84.8969 47.1655 84.8969 47.1655C84.8969 47.1655 84.8969 47.237 84.8969 47.3801C84.8969 49.5239 84.4677 51.5964 83.6107 53.5972C82.8246 55.5267 81.7166 57.2418 80.2874 58.7425H80.1801C78.6794 60.2431 76.9648 61.4223 75.0348 62.2798C73.1056 63.1373 70.9976 63.5661 68.7107 63.5661C68.7107 63.5661 68.6739 63.5661 68.6034 63.5661L32.0509 63.5655ZM32.0509 124.343V90.5779H75.6777C75.7493 90.5779 75.785 90.5779 75.785 90.5779C78.1434 90.5779 80.3587 91.0065 82.431 91.864C84.5748 92.7216 86.469 93.8654 88.1121 95.2946C89.6843 96.7946 90.9354 98.5815 91.8639 100.654C92.7931 102.726 93.2573 104.906 93.2573 107.192C93.2573 107.192 93.2573 107.229 93.2573 107.3C93.2573 109.73 92.7929 111.981 91.8639 114.053C90.9354 116.125 89.6485 117.948 88.0055 119.519C86.4332 121.092 84.5748 122.307 82.431 123.164C80.3587 124.022 78.1077 124.451 75.6777 124.451H32.0509V124.343Z" fill="white"/>
</svg>
