<svg width="1489" height="103" viewBox="0 0 1489 103" fill="none" xmlns="http://www.w3.org/2000/svg">
<path d="M1339.77 2.07031C1317.89 2.07031 1305.19 13.5787 1305.19 29.999C1305.19 60.8448 1346.42 52.2356 1346.42 72.3354C1346.42 82.6646 1337.88 87.1864 1327.58 87.1864C1320.75 87.1864 1313.37 85.6171 1308.07 83.6399L1307.41 98.0476C1312.84 99.4662 1319.43 100.486 1326.25 100.486C1348.67 100.486 1362.38 87.6652 1362.38 70.1189C1362.38 40.2662 1321.37 47.3414 1321.37 28.2258C1321.37 20.3082 1327.17 14.7047 1338.88 14.7047C1344.45 14.7047 1350.51 15.6623 1355.95 17.3646L1356.84 3.84357C1351.12 2.85055 1345.34 2.07031 1339.77 2.07031ZM2.07031 3.40027V98.9342H58.5927V85.6348H17.143V3.40027H2.07031ZM116.002 3.40027L82.31 98.9342H97.6043L104.697 77.8768H142.822L150.137 98.9342H166.983L132.848 3.40027H116.002ZM182.942 3.40027V16.478H208.654V98.9342H223.948V16.478H249.882V3.40027H182.942ZM278.476 3.40027V98.9342H293.549V56.1545H338.102V98.9342H353.174V3.40027H338.102V42.8551H293.549V3.40027H278.476ZM417.011 3.40027L383.32 98.9342H398.614L405.928 77.8768H444.053L451.146 98.9342H467.992L433.857 3.40027H417.011ZM507.891 3.40027L493.926 98.9342H509.442L515.427 49.5048C516.411 40.4435 517.306 33.1022 517.865 24.9009C519.257 31.8343 521.562 40.0179 524.071 47.5099L540.917 98.9342H556.655L574.387 43.5201C576.755 36.4448 578.147 30.2739 579.264 24.9009C580.239 31.1251 581.064 37.9875 582.589 48.1749L589.903 98.9342H605.863L591.455 3.40027H573.279L554.882 59.2577C552.647 66.333 550.954 71.0232 549.562 78.0985C548.17 71.8744 546.459 65.5261 544.242 58.5927L526.066 3.40027H507.891ZM702.062 3.40027L726.444 98.9342H744.176L760.136 39.7519C761.678 33.8115 762.76 27.9598 763.46 22.0194C764.569 28.1105 765.562 34.1751 767.229 39.9736L783.188 98.9342H801.807L826.189 3.40027H811.117L796.487 63.2475C795.086 68.4875 794.147 73.9314 793.162 79.8718C792.054 73.7806 790.565 67.459 789.173 62.3609L772.77 3.40027H756.146L740.187 62.1392C738.511 67.9378 737.394 74.0821 736.418 80.3151C735.443 73.9491 734.308 67.6984 732.65 61.4743L718.242 3.40027H702.062ZM874.067 3.40027L840.375 98.9342H855.67L862.984 77.8768H901.109L908.202 98.9342H925.048L890.913 3.40027H874.067ZM936.796 3.40027V16.478H962.508V98.9342H977.581V16.478H1003.51V3.40027H936.796ZM1035.21 3.40027V98.9342H1050.28V52.3863L1084.42 98.9342H1104.59L1065.8 49.5048L1103.26 3.40027H1084.64L1050.28 47.7315V3.40027H1035.21ZM1136.29 3.40027V98.9342H1151.58V3.40027H1136.29ZM1193.92 3.40027V98.9342H1208.55V66.794C1208.55 53.2109 1208.22 33.7938 1207.66 24.4576C1210.59 30.8236 1214.12 37.6949 1218.3 44.6283L1250.44 98.9342H1269.95V3.40027H1255.32V31.7723C1255.32 45.781 1255.64 66.3064 1256.2 77.2119C1252.72 70.2785 1249.08 62.5648 1244.9 55.4895L1213.64 3.40027H1193.92ZM123.538 20.9111C124.921 26.1422 126.154 30.593 127.971 35.5404L138.832 65.6858H108.687L119.327 35.9838C121.135 30.8946 122.554 25.7255 123.538 20.9111ZM424.769 20.9111C426.161 26.1422 427.385 30.593 429.202 35.5404L439.842 65.6858H409.918L420.336 35.9838C422.145 30.8946 423.803 25.7255 424.769 20.9111ZM881.825 20.9111C883.217 26.1422 884.441 30.593 886.258 35.5404L896.898 65.6858H866.974L877.392 35.9838C879.21 30.8946 880.85 25.7255 881.825 20.9111ZM652.854 23.571C645.193 23.571 639.554 28.7311 639.554 35.5404C639.554 38.6791 639.838 40.4878 641.549 43.0768C635.813 45.5327 631.797 52.5194 631.797 59.2577C631.797 70.3494 642.223 77.4335 652.854 77.4335C660.275 77.4335 667.04 74.6318 672.36 69.2322L681.669 76.3252L685.216 72.3354L675.684 64.5775C678.327 59.967 678.743 56.2964 678.566 52.3863C678.38 48.3433 676.952 44.8234 676.128 43.7417L671.251 45.515C672.173 46.8095 673.53 49.5048 673.468 53.7163C673.411 57.05 673.184 58.0874 671.695 61.031L657.952 49.7265C662.846 45.8431 665.932 42.332 665.932 35.9838C665.932 29.1656 659.903 23.571 652.854 23.571ZM1393.19 28.2258V71.0055H1417.79V65.0208H1399.39V28.2258H1393.19ZM1426.88 28.2258V71.0055H1451.26V65.0208H1432.86V28.2258H1426.88ZM1460.13 28.2258V71.0055H1466.11V54.6029H1472.76C1482.57 54.6029 1486.5 48.4763 1486.5 41.3035C1486.5 34.1396 1482.57 28.2258 1472.76 28.2258H1460.13ZM652.411 29.1124C657.642 29.1124 660.169 32.0826 660.169 35.9838C660.169 40.9578 657.039 44.1673 653.519 46.18C648.421 42.0838 645.539 40.4169 645.539 36.2054C645.539 32.3042 647.179 29.1124 652.411 29.1124ZM1466.11 33.1022H1472.1C1478.58 33.1022 1481.24 36.9147 1481.18 41.0819C1481.11 45.0983 1479.38 49.5048 1472.76 49.5048H1466.11V33.1022ZM645.982 47.5099L668.148 65.6858C664.779 69.6667 658.076 71.2981 653.075 71.2271C645.92 71.1208 638.224 67.3792 638.224 59.036C638.224 53.8315 641.088 50.1609 645.982 47.5099Z" fill="white"/>
</svg>
