<svg width="504" height="156" viewBox="0 0 504 156" fill="none" xmlns="http://www.w3.org/2000/svg">
<g clip-path="url(#clip0_876_3913)">
<path d="M113.751 4.86751H147.621V149.788H113.751V134.679C98.8402 151.916 80.7337 154.257 70.2959 154.257C25.5621 154.257 0 117.016 0 77.2212C0 29.9785 32.3787 1.03702 70.7219 1.03702C81.3728 1.03702 100.118 3.80349 113.751 21.6791V4.86751ZM34.7219 78.0724C34.7219 102.971 50.4852 124.251 74.9822 124.251C96.284 124.251 116.095 108.716 116.095 78.498C116.095 46.7901 96.497 31.6809 74.9822 31.6809C50.4852 31.4681 34.7219 52.323 34.7219 78.0724ZM187.882 4.86751H221.751V17.8486C225.586 13.3797 231.124 8.4852 235.811 5.71873C242.414 1.88824 248.805 0.824219 256.473 0.824219C264.781 0.824219 273.728 2.10105 283.101 7.63398L269.254 38.2779C261.586 33.3834 255.408 33.1706 252 33.1706C244.757 33.1706 237.515 34.2346 230.911 41.0443C221.538 51.0462 221.538 64.8785 221.538 74.4547V149.788H187.669L187.882 4.86751ZM304.828 4.86751H338.698V18.2742C349.988 4.4419 363.408 1.03702 374.485 1.03702C389.609 1.03702 403.882 8.27239 411.976 22.3175C424.118 5.08032 442.225 1.03702 455.006 1.03702C472.686 1.03702 488.024 9.33642 496.331 23.8072C499.101 28.7017 504 39.3419 504 60.4096V150H470.13V70.4114C470.13 54.2383 468.426 47.6413 466.935 44.662C464.805 39.1291 459.692 31.8937 447.55 31.8937C439.243 31.8937 432 36.3626 427.527 42.534C421.562 50.8334 420.923 63.1761 420.923 75.5187V150.213H387.053V70.4114C387.053 54.2383 385.349 47.6413 383.858 44.662C381.728 39.1291 376.615 31.8937 364.473 31.8937C356.166 31.8937 348.923 36.3626 344.45 42.534C338.485 50.8334 337.846 63.1761 337.846 75.5187V150.213H304.828V4.86751Z" fill="white"/>
</g>
<defs>
<clipPath id="clip0_876_3913">
<rect width="504" height="155.077" fill="white"/>
</clipPath>
</defs>
</svg>
