<svg width="753" height="161" viewBox="0 0 753 161" fill="none" xmlns="http://www.w3.org/2000/svg">
<g clip-path="url(#clip0_876_3907)">
<path d="M265.844 92.6406L261.355 105.358H260.981C260.233 102.491 258.861 98.1266 256.617 92.8899L232.553 32.4188H208.988V128.799H224.574V69.3249C224.574 65.5844 224.574 61.3452 224.449 56.1085C224.324 53.4902 224.075 51.4953 223.95 49.9991H224.324C225.072 53.7395 225.945 56.4826 226.569 58.2281L255.495 128.549H266.467L295.144 57.6047C295.768 55.9838 296.391 52.7421 297.014 49.9991H297.388C297.014 57.106 296.765 63.4648 296.64 67.33V128.425H313.223V32.1694H290.531L265.844 92.6406ZM328.933 59.3503H345.142V128.425H328.933V59.3503ZM337.162 30.1745C334.419 30.1745 332.175 31.172 330.305 32.9175C328.434 34.6631 327.437 36.9074 327.437 39.6504C327.437 42.2687 328.434 44.513 330.305 46.2586C332.175 48.0041 334.419 48.8769 337.162 48.8769C339.905 48.8769 342.274 47.8794 344.02 46.2586C345.89 44.513 346.887 42.2687 346.887 39.6504C346.887 37.032 345.89 34.7878 344.02 32.9175C342.399 31.172 340.03 30.1745 337.162 30.1745ZM402.621 58.7269C399.628 58.1034 396.511 57.7294 393.519 57.7294C386.163 57.7294 379.43 59.3503 373.819 62.592C368.208 65.8338 363.72 70.3224 360.852 75.9331C357.86 81.6685 356.363 88.2767 356.363 95.8823C356.363 102.491 357.86 108.351 360.727 113.712C363.595 118.949 367.585 123.188 372.946 126.056C378.058 128.923 384.043 130.419 390.776 130.419C398.506 130.419 405.114 128.799 410.351 125.806L410.476 125.682V110.72L409.852 111.218C407.483 112.964 404.74 114.46 401.997 115.333C399.13 116.33 396.511 116.829 394.267 116.829C387.783 116.829 382.671 114.959 379.056 110.844C375.315 106.854 373.445 101.368 373.445 94.5108C373.445 87.4039 375.315 81.7932 379.18 77.6786C383.045 73.5641 388.157 71.4445 394.392 71.4445C399.628 71.4445 404.99 73.1901 409.852 76.6812L410.476 77.1799V61.3452L410.351 61.2205C408.231 60.3477 405.862 59.3503 402.621 58.7269ZM456.11 58.2281C452.12 58.2281 448.379 59.4749 445.138 62.0933C442.394 64.3376 440.524 67.5793 438.903 71.4445H438.779V59.3503H422.57V128.425H438.779V93.1393C438.779 87.1545 440.026 82.1672 442.769 78.5514C445.512 74.8109 449.003 72.9407 453.242 72.9407C454.738 72.9407 456.234 73.3147 458.105 73.5641C459.85 74.0628 461.097 74.5616 461.97 75.185L462.593 75.6837V59.475L462.219 59.3503C461.097 58.6022 458.853 58.2281 456.11 58.2281ZM500.247 57.8541C488.901 57.8541 479.799 61.2205 473.441 67.8287C466.957 74.4369 463.84 83.5387 463.84 95.0095C463.84 105.732 467.082 114.46 473.316 120.819C479.55 127.053 488.028 130.295 498.626 130.295C509.723 130.295 518.576 126.928 524.935 120.195C531.418 113.463 534.535 104.485 534.535 93.3887C534.535 82.4166 531.543 73.6888 525.433 67.33C519.573 60.9711 510.97 57.8541 500.247 57.8541ZM513.214 110.969C510.222 114.834 505.484 116.704 499.624 116.704C493.764 116.704 489.026 114.834 485.659 110.72C482.293 106.854 480.672 101.244 480.672 94.1368C480.672 86.7805 482.418 81.1698 485.659 77.1799C489.026 73.1901 493.639 71.1951 499.499 71.1951C505.235 71.1951 509.723 73.0654 512.965 76.9305C516.207 80.7957 517.952 86.4064 517.952 93.7627C517.703 101.244 516.331 107.104 513.214 110.969ZM570.693 88.0273C565.581 85.9077 562.339 84.2868 560.843 82.9153C559.596 81.6685 558.973 79.9229 558.973 77.6786C558.973 75.8084 559.721 73.9382 561.591 72.6913C563.461 71.4445 565.581 70.8211 568.698 70.8211C571.441 70.8211 574.309 71.3198 577.052 72.0679C579.795 72.816 582.289 73.9382 584.284 75.4344L584.907 75.9331V60.7218L584.533 60.5971C582.663 59.849 580.169 59.1009 577.177 58.4775C574.184 57.9788 571.441 57.7294 569.197 57.7294C561.467 57.7294 555.108 59.5996 550.12 63.7142C545.133 67.5793 542.764 72.816 542.764 78.9255C542.764 82.1672 543.263 85.0349 544.385 87.4039C545.507 89.7729 547.128 92.0172 549.372 93.8874C551.617 95.633 554.858 97.6279 559.347 99.4981C563.087 101.119 565.955 102.366 567.701 103.363C569.446 104.361 570.568 105.483 571.441 106.356C572.065 107.353 572.439 108.6 572.439 110.221C572.439 114.834 568.948 117.078 561.841 117.078C559.098 117.078 556.23 116.58 552.863 115.458C549.497 114.335 546.38 112.715 543.762 110.844L543.138 110.346V126.18L543.512 126.305C545.881 127.427 548.749 128.175 552.24 129.048C555.731 129.671 558.848 130.17 561.591 130.17C569.945 130.17 576.803 128.3 581.665 124.185C586.652 120.195 589.271 115.083 589.271 108.475C589.271 103.862 588.024 99.7475 585.281 96.6304C581.665 93.638 577.177 90.521 570.693 88.0273ZM632.037 57.8541C620.691 57.8541 611.589 61.2205 605.23 67.8287C598.871 74.4369 595.63 83.5387 595.63 95.0095C595.63 105.732 598.871 114.46 605.106 120.819C611.34 127.053 619.818 130.295 630.416 130.295C641.513 130.295 650.365 126.928 656.724 120.195C663.208 113.463 666.325 104.485 666.325 93.3887C666.325 82.4166 663.332 73.6888 657.223 67.33C651.363 60.9711 642.76 57.8541 632.037 57.8541ZM644.879 110.969C641.887 114.834 637.149 116.704 631.289 116.704C625.304 116.704 620.691 114.834 617.324 110.72C613.958 106.854 612.337 101.244 612.337 94.1368C612.337 86.7805 614.083 81.1698 617.324 77.1799C620.691 73.1901 625.304 71.1951 631.164 71.1951C636.775 71.1951 641.388 73.0654 644.63 76.9305C647.872 80.7957 649.617 86.4064 649.617 93.7627C649.617 101.244 647.996 107.104 644.879 110.969ZM752.979 72.6913V59.3503H736.646V38.9023L736.147 39.027L720.687 43.6402L720.312 43.7649V59.3503H695.875V50.6225C695.875 46.6326 696.872 43.5156 698.618 41.5206C700.363 39.5257 702.982 38.5282 706.223 38.5282C708.468 38.5282 710.837 39.027 713.455 40.1491L714.078 40.5232V26.434L713.704 26.3093C711.46 25.5612 708.468 25.0625 704.602 25.0625C699.74 25.0625 695.501 26.1846 691.635 28.0549C687.77 30.1745 684.903 33.0422 682.783 36.9074C680.663 40.6478 679.541 44.8871 679.541 49.7497V59.3503H668.195V72.5666H679.541V128.425H695.875V72.6913H720.312V108.226C720.312 122.814 727.17 130.17 740.885 130.17C743.129 130.17 745.498 129.796 747.743 129.422C750.112 128.923 751.857 128.3 752.855 127.801L752.979 127.676V114.335L752.356 114.834C751.359 115.458 750.486 115.956 748.99 116.33C747.743 116.704 746.62 116.829 745.748 116.829C742.506 116.829 740.262 116.081 738.641 114.211C737.145 112.465 736.397 109.597 736.397 105.358V72.6913H752.979Z" fill="white"/>
<path d="M0.0214844 0H76.452V76.4305H0.0214844V0Z" fill="#8F8F8F"/>
<path d="M84.4316 0H160.862V76.4305H84.4316V0Z" fill="#B5B5B5"/>
<path d="M0.0214844 84.4102H76.452V160.841H0.0214844V84.4102Z" fill="#C7C7C7"/>
<path d="M84.4316 84.4102H160.862V160.841H84.4316V84.4102Z" fill="#B0AEAE"/>
</g>
<defs>
<clipPath id="clip0_876_3907">
<rect width="753" height="160.841" fill="white"/>
</clipPath>
</defs>
</svg>
