<svg width="22" height="65" viewBox="0 0 22 65" fill="none" xmlns="http://www.w3.org/2000/svg">
<g filter="url(#filter0_d_1713_570)">
<path d="M16.146 13.5052H15.4117V11.1395H14.6675V10.6122H14.8153C14.9698 10.6122 15.0979 10.581 15.1997 10.5185C15.3049 10.4561 15.3969 10.351 15.4757 10.2031H16.146V13.5052Z" fill="#E8E8E9"/>
</g>
<g filter="url(#filter1_d_1713_570)">
<path d="M14.2026 13.5052H13.4683V11.1395H12.7241V10.6122H12.872C13.0264 10.6122 13.1545 10.581 13.2564 10.5185C13.3615 10.4561 13.4535 10.351 13.5324 10.2031H14.2026V13.5052Z" fill="#E8E8E9"/>
</g>
<g filter="url(#filter2_d_1713_570)">
<path d="M7.92818 12.5034H7L9.14386 7H10.417L12.5609 12.5034H11.5999L10.1542 8.82351L9.80098 7.79676H9.73527L9.37385 8.82351L7.92818 12.5034ZM11.5259 11.0742H8.05961V10.2774H11.5259V11.0742Z" fill="#E8E8E9"/>
</g>
<path fill-rule="evenodd" clip-rule="evenodd" d="M1.5 2.09277C1.5 1.21311 2.21311 0.5 3.09277 0.5H20.1523C21.0319 0.5 21.745 1.21311 21.745 2.09277V18.0202C21.745 18.8999 21.0319 19.613 20.1523 19.613H3.09277C2.21311 19.613 1.5 18.8999 1.5 18.0202V2.09277ZM3.09277 1.5C2.76539 1.5 2.5 1.76539 2.5 2.09277V18.0202C2.5 18.3476 2.76539 18.613 3.09277 18.613H20.1523C20.4796 18.613 20.745 18.3476 20.745 18.0202V2.09277C20.745 1.76539 20.4796 1.5 20.1523 1.5H3.09277Z" fill="#E8E8E9"/>
<g filter="url(#filter3_d_1713_570)">
<path d="M16.4692 33.5052H15.7349V31.1395H14.9907V30.6122H15.1386C15.293 30.6122 15.4211 30.581 15.523 30.5185C15.6281 30.4561 15.7201 30.351 15.799 30.2031H16.4692V33.5052Z" fill="#E8E8E9"/>
</g>
<g filter="url(#filter4_d_1713_570)">
<path d="M14.4942 33.5037H11.9117V33.0601C11.9117 32.8465 11.9544 32.6708 12.0398 32.5328C12.1252 32.3915 12.2353 32.2748 12.37 32.1829C12.508 32.0876 12.6526 32.0038 12.8037 31.9315L13.3754 31.6604C13.474 31.6112 13.5512 31.5668 13.607 31.5274C13.6662 31.4847 13.7073 31.437 13.7303 31.3844C13.7565 31.3319 13.7697 31.2695 13.7697 31.1972C13.7697 31.1183 13.7533 31.0526 13.7204 31C13.6908 30.9442 13.6366 30.9015 13.5578 30.8719C13.4822 30.8423 13.3705 30.8275 13.2226 30.8275C13.0649 30.8275 12.9433 30.844 12.8579 30.8768C12.7725 30.9064 12.715 30.9573 12.6854 31.0296C12.6591 31.1019 12.646 31.1972 12.646 31.3154V31.3992H11.9067V31.3204C11.9067 31.1035 11.9527 30.908 12.0447 30.7339C12.14 30.5565 12.2879 30.4152 12.4883 30.3101C12.692 30.2049 12.9565 30.1523 13.2818 30.1523C13.5742 30.1523 13.8091 30.1983 13.9865 30.2903C14.1672 30.3791 14.2987 30.5023 14.3808 30.66C14.4629 30.8144 14.504 30.9918 14.504 31.1922C14.504 31.3795 14.4646 31.5405 14.3857 31.6752C14.3069 31.8066 14.2034 31.9184 14.0752 32.0104C13.9504 32.1024 13.8157 32.1812 13.6711 32.2469L13.1733 32.4638C13.0386 32.5262 12.9253 32.587 12.8333 32.6461C12.7446 32.702 12.7002 32.7693 12.7002 32.8482L13.2325 32.8383H14.4942V33.5037Z" fill="#E8E8E9"/>
</g>
<g filter="url(#filter5_d_1713_570)">
<path d="M6.92818 32.5034H6L8.14386 27H9.41703L11.5609 32.5034H10.5999L9.15419 28.8235L8.80098 27.7968H8.73527L8.37385 28.8235L6.92818 32.5034ZM10.5259 31.0742H7.05961V30.2774H10.5259V31.0742Z" fill="#E8E8E9"/>
</g>
<path fill-rule="evenodd" clip-rule="evenodd" d="M1.5 22.2061C1.5 21.3264 2.21311 20.6133 3.09277 20.6133H20.1523C21.0319 20.6133 21.745 21.3264 21.745 22.2061V38.1335C21.745 39.0131 21.0319 39.7263 20.1523 39.7263H3.09277C2.21311 39.7263 1.5 39.0131 1.5 38.1335V22.2061ZM3.09277 21.6133C2.76539 21.6133 2.5 21.8787 2.5 22.2061V38.1335C2.5 38.4609 2.76539 38.7263 3.09277 38.7263H20.1523C20.4796 38.7263 20.745 38.4609 20.745 38.1335V22.2061C20.745 21.8787 20.4796 21.6133 20.1523 21.6133H3.09277Z" fill="#E8E8E9"/>
<g filter="url(#filter6_d_1713_570)">
<path d="M16.354 53.5052H15.6197V51.1395H14.8755V50.6122H15.0233C15.1778 50.6122 15.3059 50.581 15.4078 50.5185C15.5129 50.4561 15.6049 50.351 15.6837 50.2031H16.354V53.5052Z" fill="#E8E8E9"/>
</g>
<g filter="url(#filter7_d_1713_570)">
<path d="M13.1879 53.5529C12.8561 53.5529 12.5899 53.5102 12.3895 53.4248C12.1891 53.3394 12.0445 53.2178 11.9558 53.0601C11.8671 52.8991 11.8228 52.7102 11.8228 52.4933V52.3849H12.5472V52.4835C12.5472 52.5853 12.5637 52.6642 12.5965 52.72C12.6294 52.7759 12.6918 52.8153 12.7838 52.8383C12.8791 52.8613 13.0138 52.8728 13.1879 52.8728C13.3916 52.8728 13.5444 52.8482 13.6463 52.7989C13.7481 52.7496 13.799 52.6494 13.799 52.4983C13.799 52.334 13.7629 52.2288 13.6906 52.1829C13.6183 52.1336 13.5017 52.1089 13.3407 52.1089H12.6458V51.5077H13.2619C13.4097 51.5077 13.5148 51.4863 13.5773 51.4436C13.6397 51.4009 13.6709 51.3138 13.6709 51.1824C13.6709 51.051 13.6249 50.9606 13.5329 50.9113C13.4442 50.8587 13.3128 50.8325 13.1386 50.8325C12.9941 50.8325 12.8774 50.844 12.7887 50.867C12.7033 50.89 12.6409 50.9294 12.6014 50.9852C12.5653 51.0411 12.5472 51.12 12.5472 51.2218V51.2662H11.8228V51.212C11.8228 50.9918 11.8753 50.8029 11.9805 50.6452C12.0856 50.4875 12.2384 50.3659 12.4388 50.2805C12.6392 50.1951 12.8791 50.1523 13.1584 50.1523C13.4212 50.1523 13.6446 50.1852 13.8286 50.2509C14.0159 50.3166 14.1588 50.4168 14.2574 50.5515C14.3592 50.683 14.4102 50.8473 14.4102 51.0444C14.4102 51.2382 14.3609 51.3976 14.2623 51.5224C14.1638 51.6473 14.006 51.7229 13.7892 51.7492V51.7787C14.0258 51.7984 14.2114 51.8789 14.3461 52.0202C14.4808 52.1615 14.5482 52.3537 14.5482 52.5968C14.5482 52.8104 14.4923 52.9895 14.3806 53.134C14.2722 53.2753 14.1145 53.3805 13.9075 53.4495C13.7038 53.5185 13.4639 53.5529 13.1879 53.5529Z" fill="#E8E8E9"/>
</g>
<g filter="url(#filter8_d_1713_570)">
<path d="M6.92818 52.5034H6L8.14386 47H9.41703L11.5609 52.5034H10.5999L9.15419 48.8235L8.80098 47.7968H8.73527L8.37385 48.8235L6.92818 52.5034ZM10.5259 51.0742H7.05961V50.2774H10.5259V51.0742Z" fill="#E8E8E9"/>
</g>
<path fill-rule="evenodd" clip-rule="evenodd" d="M1.5 42.3193C1.5 41.4397 2.21311 40.7266 3.09277 40.7266H20.1523C21.0319 40.7266 21.745 41.4397 21.745 42.3193V58.2468C21.745 59.1264 21.0319 59.8395 20.1523 59.8395H3.09277C2.21311 59.8395 1.5 59.1264 1.5 58.2468V42.3193ZM3.09277 41.7266C2.76539 41.7266 2.5 41.992 2.5 42.3193V58.2468C2.5 58.5741 2.76539 58.8395 3.09277 58.8395H20.1523C20.4796 58.8395 20.745 58.5741 20.745 58.2468V42.3193C20.745 41.992 20.4796 41.7266 20.1523 41.7266H3.09277Z" fill="#E8E8E9"/>
<defs>
<filter id="filter0_d_1713_570" x="9.19146" y="10.2031" width="12.4305" height="14.2528" filterUnits="userSpaceOnUse" color-interpolation-filters="sRGB">
<feFlood flood-opacity="0" result="BackgroundImageFix"/>
<feColorMatrix in="SourceAlpha" type="matrix" values="0 0 0 0 0 0 0 0 0 0 0 0 0 0 0 0 0 0 127 0" result="hardAlpha"/>
<feOffset dy="5.47602"/>
<feGaussianBlur stdDeviation="2.73801"/>
<feComposite in2="hardAlpha" operator="out"/>
<feColorMatrix type="matrix" values="0 0 0 0 0 0 0 0 0 0 0 0 0 0 0 0 0 0 0.25 0"/>
<feBlend mode="normal" in2="BackgroundImageFix" result="effect1_dropShadow_1713_570"/>
<feBlend mode="normal" in="SourceGraphic" in2="effect1_dropShadow_1713_570" result="shape"/>
</filter>
<filter id="filter1_d_1713_570" x="7.24811" y="10.2031" width="12.4305" height="14.2528" filterUnits="userSpaceOnUse" color-interpolation-filters="sRGB">
<feFlood flood-opacity="0" result="BackgroundImageFix"/>
<feColorMatrix in="SourceAlpha" type="matrix" values="0 0 0 0 0 0 0 0 0 0 0 0 0 0 0 0 0 0 127 0" result="hardAlpha"/>
<feOffset dy="5.47602"/>
<feGaussianBlur stdDeviation="2.73801"/>
<feComposite in2="hardAlpha" operator="out"/>
<feColorMatrix type="matrix" values="0 0 0 0 0 0 0 0 0 0 0 0 0 0 0 0 0 0 0.25 0"/>
<feBlend mode="normal" in2="BackgroundImageFix" result="effect1_dropShadow_1713_570"/>
<feBlend mode="normal" in="SourceGraphic" in2="effect1_dropShadow_1713_570" result="shape"/>
</filter>
<filter id="filter2_d_1713_570" x="1.52398" y="7" width="16.5131" height="16.4559" filterUnits="userSpaceOnUse" color-interpolation-filters="sRGB">
<feFlood flood-opacity="0" result="BackgroundImageFix"/>
<feColorMatrix in="SourceAlpha" type="matrix" values="0 0 0 0 0 0 0 0 0 0 0 0 0 0 0 0 0 0 127 0" result="hardAlpha"/>
<feOffset dy="5.47602"/>
<feGaussianBlur stdDeviation="2.73801"/>
<feComposite in2="hardAlpha" operator="out"/>
<feColorMatrix type="matrix" values="0 0 0 0 0 0 0 0 0 0 0 0 0 0 0 0 0 0 0.25 0"/>
<feBlend mode="normal" in2="BackgroundImageFix" result="effect1_dropShadow_1713_570"/>
<feBlend mode="normal" in="SourceGraphic" in2="effect1_dropShadow_1713_570" result="shape"/>
</filter>
<filter id="filter3_d_1713_570" x="9.51471" y="30.2031" width="12.4305" height="14.2528" filterUnits="userSpaceOnUse" color-interpolation-filters="sRGB">
<feFlood flood-opacity="0" result="BackgroundImageFix"/>
<feColorMatrix in="SourceAlpha" type="matrix" values="0 0 0 0 0 0 0 0 0 0 0 0 0 0 0 0 0 0 127 0" result="hardAlpha"/>
<feOffset dy="5.47602"/>
<feGaussianBlur stdDeviation="2.73801"/>
<feComposite in2="hardAlpha" operator="out"/>
<feColorMatrix type="matrix" values="0 0 0 0 0 0 0 0 0 0 0 0 0 0 0 0 0 0 0.25 0"/>
<feBlend mode="normal" in2="BackgroundImageFix" result="effect1_dropShadow_1713_570"/>
<feBlend mode="normal" in="SourceGraphic" in2="effect1_dropShadow_1713_570" result="shape"/>
</filter>
<filter id="filter4_d_1713_570" x="6.43072" y="30.1523" width="13.5492" height="14.3036" filterUnits="userSpaceOnUse" color-interpolation-filters="sRGB">
<feFlood flood-opacity="0" result="BackgroundImageFix"/>
<feColorMatrix in="SourceAlpha" type="matrix" values="0 0 0 0 0 0 0 0 0 0 0 0 0 0 0 0 0 0 127 0" result="hardAlpha"/>
<feOffset dy="5.47602"/>
<feGaussianBlur stdDeviation="2.73801"/>
<feComposite in2="hardAlpha" operator="out"/>
<feColorMatrix type="matrix" values="0 0 0 0 0 0 0 0 0 0 0 0 0 0 0 0 0 0 0.25 0"/>
<feBlend mode="normal" in2="BackgroundImageFix" result="effect1_dropShadow_1713_570"/>
<feBlend mode="normal" in="SourceGraphic" in2="effect1_dropShadow_1713_570" result="shape"/>
</filter>
<filter id="filter5_d_1713_570" x="0.523984" y="27" width="16.5131" height="16.4559" filterUnits="userSpaceOnUse" color-interpolation-filters="sRGB">
<feFlood flood-opacity="0" result="BackgroundImageFix"/>
<feColorMatrix in="SourceAlpha" type="matrix" values="0 0 0 0 0 0 0 0 0 0 0 0 0 0 0 0 0 0 127 0" result="hardAlpha"/>
<feOffset dy="5.47602"/>
<feGaussianBlur stdDeviation="2.73801"/>
<feComposite in2="hardAlpha" operator="out"/>
<feColorMatrix type="matrix" values="0 0 0 0 0 0 0 0 0 0 0 0 0 0 0 0 0 0 0.25 0"/>
<feBlend mode="normal" in2="BackgroundImageFix" result="effect1_dropShadow_1713_570"/>
<feBlend mode="normal" in="SourceGraphic" in2="effect1_dropShadow_1713_570" result="shape"/>
</filter>
<filter id="filter6_d_1713_570" x="9.39947" y="50.2031" width="12.4305" height="14.2528" filterUnits="userSpaceOnUse" color-interpolation-filters="sRGB">
<feFlood flood-opacity="0" result="BackgroundImageFix"/>
<feColorMatrix in="SourceAlpha" type="matrix" values="0 0 0 0 0 0 0 0 0 0 0 0 0 0 0 0 0 0 127 0" result="hardAlpha"/>
<feOffset dy="5.47602"/>
<feGaussianBlur stdDeviation="2.73801"/>
<feComposite in2="hardAlpha" operator="out"/>
<feColorMatrix type="matrix" values="0 0 0 0 0 0 0 0 0 0 0 0 0 0 0 0 0 0 0.25 0"/>
<feBlend mode="normal" in2="BackgroundImageFix" result="effect1_dropShadow_1713_570"/>
<feBlend mode="normal" in="SourceGraphic" in2="effect1_dropShadow_1713_570" result="shape"/>
</filter>
<filter id="filter7_d_1713_570" x="6.34674" y="50.1523" width="13.6776" height="14.3544" filterUnits="userSpaceOnUse" color-interpolation-filters="sRGB">
<feFlood flood-opacity="0" result="BackgroundImageFix"/>
<feColorMatrix in="SourceAlpha" type="matrix" values="0 0 0 0 0 0 0 0 0 0 0 0 0 0 0 0 0 0 127 0" result="hardAlpha"/>
<feOffset dy="5.47602"/>
<feGaussianBlur stdDeviation="2.73801"/>
<feComposite in2="hardAlpha" operator="out"/>
<feColorMatrix type="matrix" values="0 0 0 0 0 0 0 0 0 0 0 0 0 0 0 0 0 0 0.25 0"/>
<feBlend mode="normal" in2="BackgroundImageFix" result="effect1_dropShadow_1713_570"/>
<feBlend mode="normal" in="SourceGraphic" in2="effect1_dropShadow_1713_570" result="shape"/>
</filter>
<filter id="filter8_d_1713_570" x="0.523984" y="47" width="16.5131" height="16.4559" filterUnits="userSpaceOnUse" color-interpolation-filters="sRGB">
<feFlood flood-opacity="0" result="BackgroundImageFix"/>
<feColorMatrix in="SourceAlpha" type="matrix" values="0 0 0 0 0 0 0 0 0 0 0 0 0 0 0 0 0 0 127 0" result="hardAlpha"/>
<feOffset dy="5.47602"/>
<feGaussianBlur stdDeviation="2.73801"/>
<feComposite in2="hardAlpha" operator="out"/>
<feColorMatrix type="matrix" values="0 0 0 0 0 0 0 0 0 0 0 0 0 0 0 0 0 0 0.25 0"/>
<feBlend mode="normal" in2="BackgroundImageFix" result="effect1_dropShadow_1713_570"/>
<feBlend mode="normal" in="SourceGraphic" in2="effect1_dropShadow_1713_570" result="shape"/>
</filter>
</defs>
</svg>
